<svg width="374" height="489" viewBox="0 0 374 489" fill="none" xmlns="http://www.w3.org/2000/svg">
<g clip-path="url(#clip0_1729_12608)">
<g opacity="0.3">
<path d="M251.538 79.2658L275.09 93.6429V68.626L251.538 54.2203V79.2658Z" fill="#00FFAA"/>
<path d="M337.822 269.333L316.546 256.349V223.327L337.822 236.343V269.337V269.333ZM318.18 255.43L336.188 266.421V237.254L318.18 226.239V255.43Z" fill="#00FFAA"/>
<path d="M373.523 290.257L352.247 277.273V244.251L373.523 257.268V290.262V290.257ZM353.885 276.354L371.893 287.345V258.179L353.885 247.163V276.354Z" fill="#00FFAA"/>
<path d="M330.199 148.427L286.079 121.498V74.3972L330.199 101.391V148.431V148.427ZM287.713 120.579L328.565 145.515V102.306L287.713 77.3135V120.584V120.579Z" fill="#00FFAA"/>
<path d="M343.652 202.41L239.507 138.841V27.9005L343.652 91.617V202.41ZM241.142 137.926L342.018 199.502V92.532L241.142 30.8127V137.922V137.926Z" fill="#00FFAA"/>
<path d="M360.806 231.932L222.358 147.422V0L360.806 84.7062V231.932ZM223.992 146.507L359.172 229.02V85.6212L223.992 2.91626V146.511V146.507Z" fill="#00FFAA"/>
</g>
<path d="M354.465 402.95C352.819 398.67 352.488 393.874 348.836 390.199C346.667 379.742 345.302 369.127 343.211 358.655C341.393 349.559 339.044 340.577 336.964 331.543C336.874 329.688 336.801 327.842 336.748 326.016C336.633 322.026 336.601 318.166 336.613 314.69C336.629 310.745 336.703 307.289 336.78 304.696C336.862 301.943 336.944 300.17 336.96 299.815C336.96 299.607 336.968 299.394 336.968 299.186C337.291 280.757 336.429 262.181 332.736 244.108C331.886 239.942 330.677 235.302 328.72 231.695C334.358 230.879 341.029 229.102 346.328 226.913C354.747 223.433 355.532 217.617 354.388 209.227C353.513 202.802 352.161 196.239 350.666 189.814C352.508 189.267 353.452 188.001 353.003 186.036C350.188 178.631 347.786 171.075 345.801 163.368C342.389 149.783 334.395 140.176 321.391 134.732C325.383 133.658 336.548 129.144 338.725 118.492C341.438 105.214 332.675 103.682 327.601 96.3835C322.523 89.0847 325.946 77.2114 310.643 68.3401C295.34 59.4688 273.37 66.2489 263.324 79.2332C259.586 84.065 256.968 92.8546 261.809 97.7681C262.311 98.2746 263.243 98.634 263.492 98.9689C263.974 99.6265 261.535 106.292 261.004 107.546C259.292 111.594 256.69 114.959 256.306 119.595C256.065 122.487 256.841 126.285 258.949 128.401C259.423 128.879 261.057 129.471 260.395 130.01C260.322 130.072 259.766 130.076 259.378 130.407C254.627 134.446 251.175 141.091 248.066 146.483C243.911 153.688 240.186 161.158 236.072 168.391C235.157 171.549 238.359 171.373 238.339 172.68C238.31 174.551 235.553 178.427 235.471 180.665C231.227 177.549 227.521 173.783 223.636 170.242C218.681 165.72 208.231 157.004 205.347 151.359C203.288 147.332 202.724 142.917 198.909 139.825C196.028 137.493 193.304 137.583 190.019 136.46C187.258 135.516 183.078 132.624 180.856 132.142C176.027 131.097 175.586 136.607 177.87 139.621C178.956 141.05 180.435 141.451 181.55 142.68C178.217 141.831 174.81 140.985 171.423 140.348C168.617 139.821 162.084 137.812 160.508 141.042C160.173 141.728 160.414 142.929 160.279 143.06C159.956 143.379 156.884 143.387 156.406 145.094C155.814 147.214 156.296 148.411 158.114 149.571C158.547 149.844 159.433 149.991 159.486 150.04C159.666 150.212 158.15 153.21 159.903 154.717C160.389 155.138 161.451 155.26 161.745 155.734C162.068 156.257 161.897 157.29 162.248 158.091C162.517 158.707 163.829 160.01 164.409 160.423C166.66 162.028 175.288 165.12 178.184 165.847C182.625 166.962 186.628 166.794 191.167 166.794C191.874 166.794 192.511 166.472 193.12 166.488C194.607 166.533 196.457 167.954 197.483 169.016C201.772 173.464 206.009 180.391 210.147 185.354C215.286 191.521 228.146 206.262 236.121 207.177C245.006 208.194 249.247 202.365 253.626 195.745L255.901 191.693C256.477 195.981 257.421 200.291 257.915 204.591C258.904 213.242 256.522 224.339 255.048 233.109C254.067 238.921 252.919 244.721 251.816 250.508L193.271 215.309C187.229 212.058 182.265 210.628 175.255 211.335C167.073 212.16 150.07 223.621 142.206 228.122C135.114 232.177 128.067 236.339 120.963 240.375C120.444 240.669 117.625 242.331 116.575 242.695C117.433 249.891 118.736 258.828 120.538 266.209C120.975 266.049 121.518 265.849 121.78 265.698C135.661 257.652 149.216 248.691 163.294 241.041C178.09 232.998 184.962 235.155 198.835 243.234C214.359 252.273 229.417 262.283 244.741 271.673C245.807 272.327 246.93 273.119 248.135 273.397L245.721 285.879C245.055 288.591 247.233 289.106 249.214 290.078C251.747 291.319 254.508 292.275 257.074 293.447C257.286 297.846 256.959 302.282 257.115 306.681C257.993 331.804 262.123 356.727 264.076 381.817C264.207 383.496 264.399 385.816 263.843 387.319C259.603 390.554 255.06 393.589 250.558 396.501C245.88 399.527 237.636 403.028 235.263 408.166C231.819 415.616 234.887 421.775 242.825 422.878C250.762 423.981 253.548 422.408 259.206 420.505C260.044 420.223 268.022 416.882 272.675 415.346C276.703 414.019 283.133 414.443 285.903 410.6C286.079 410.355 286.25 409.987 286.418 409.55C287.317 407.186 287.272 404.563 286.377 402.194L286.238 401.827L285.315 400.001C285.315 400.001 284.8 398.51 284.49 396.378C284.318 395.19 282.888 392.449 282.892 391.644C282.901 388.859 283.836 385.134 284.098 382.246C285.952 361.779 286.831 341.108 288.979 320.551L292.26 301.567C293.465 301.955 294.633 302.033 295.896 302.016C298.375 312.624 301.055 322.973 305.014 333.131C306.664 337.371 308.731 341.472 310.431 345.683C316.113 359.741 321.751 373.82 327.352 387.911C327.617 388.393 328.549 388.022 329.043 388.336C329.496 388.626 330.816 393.405 330.632 394.034C330.448 394.642 329.194 396.774 329.023 397.342C328.508 399.053 325.656 405.209 323.083 409.657C320.509 414.104 316.105 418.802 315.21 420.296C314.733 421.097 313.911 423.082 313.911 423.082C313.911 423.082 313.654 425.1 313.911 425.328C313.205 426.627 313.327 429.417 313.327 429.417C313.327 429.417 314.177 435.094 319.753 437.128C323.356 438.443 329.272 438.162 333.222 436.667C342.549 433.142 347.075 421.926 347.075 421.926C348.256 419.12 351.495 415.926 351.495 415.926C352.459 414.644 355.111 410.024 355.389 409.407C356.181 407.639 354.951 404.22 354.461 402.958L354.465 402.95Z" fill="black"/>
<path d="M336.964 299.746L336.977 299.178C336.977 299.39 336.968 299.603 336.968 299.812C336.968 299.767 336.968 299.742 336.968 299.742L336.964 299.746Z" fill="black"/>
<path d="M363.167 422.13L340.151 435.445C342.733 434.629 345.167 433.742 347.426 432.791L359.58 425.761C360.985 424.593 362.186 423.38 363.167 422.13Z" fill="black"/>
<path d="M307.02 441.143C308.041 441.086 309.054 441.017 310.063 440.939L365.152 409.068C364.968 408.664 364.76 408.268 364.531 407.872L307.02 441.143Z" fill="black"/>
<path d="M232.914 424.597L298.645 386.568C298.069 386.563 297.489 386.559 296.905 386.559C296.59 386.559 296.276 386.559 295.961 386.563L231.929 423.609C232.244 423.94 232.571 424.271 232.914 424.593V424.597Z" fill="black"/>
<path d="M227.55 414.227L272.295 388.34C271.029 388.532 269.779 388.732 268.549 388.953L227.632 412.626C227.574 413.079 227.546 413.537 227.546 413.998C227.546 414.076 227.55 414.153 227.554 414.227H227.55Z" fill="black"/>
<path d="M230.896 405.556L253.038 392.743C250.268 393.638 247.678 394.618 245.292 395.668L234.944 401.655C233.355 402.905 231.999 404.204 230.896 405.552V405.556Z" fill="black"/>
<path d="M360.793 403.293L300.945 437.917L294.895 441.417C295.565 441.425 296.235 441.429 296.909 441.429C297.129 441.429 297.35 441.429 297.571 441.429L301.623 439.085L361.786 404.277C361.471 403.947 361.141 403.62 360.793 403.293Z" fill="black"/>
<path d="M286.483 386.866C285.458 386.927 284.441 386.996 283.428 387.078L228.604 418.798C228.784 419.202 228.988 419.602 229.213 420.002L286.479 386.87L286.483 386.866Z" fill="black"/>
<path d="M366.255 413.606L321.138 439.71C322.396 439.522 323.642 439.322 324.864 439.109L366.198 415.195C366.243 414.799 366.267 414.399 366.267 413.994C366.267 413.863 366.259 413.737 366.255 413.606Z" fill="black"/>
<path d="M300.945 404.237L249.475 434.016C250.019 434.216 250.574 434.416 251.134 434.612L301.619 405.405L328.863 389.643C328.201 389.508 327.536 389.373 326.857 389.247L300.945 404.241V404.237Z" fill="black"/>
<path d="M300.945 431.181L284.044 440.959C284.841 441.021 285.646 441.074 286.455 441.123L301.623 432.349L357.019 400.299C356.61 400.021 356.189 399.744 355.756 399.474L300.945 431.185V431.181Z" fill="black"/>
<path d="M300.945 390.415L236.668 427.603C237.073 427.885 237.493 428.159 237.922 428.433L301.623 391.579L309.52 387.009C308.719 386.951 307.914 386.898 307.101 386.849L300.945 390.411V390.415Z" fill="black"/>
<path d="M300.945 397.497L242.78 431.149C243.262 431.386 243.752 431.622 244.254 431.851L301.623 398.661L319.88 388.099C319.153 387.997 318.426 387.903 317.69 387.809L300.949 397.497H300.945Z" fill="black"/>
<path d="M300.945 410.972L256.951 436.426C257.556 436.593 258.169 436.757 258.785 436.92L301.619 412.14L337.075 391.628C336.47 391.457 335.861 391.293 335.244 391.13L300.945 410.972Z" fill="black"/>
<path d="M300.945 424.446L274.187 439.926C274.914 440.024 275.645 440.122 276.385 440.212L301.619 425.61L351.201 396.921C350.719 396.685 350.229 396.448 349.731 396.215L300.941 424.442L300.945 424.446Z" fill="black"/>
<path d="M300.945 417.711L265.183 438.403C265.845 438.537 266.519 438.668 267.193 438.795L301.619 418.875L344.526 394.05C343.983 393.846 343.431 393.65 342.871 393.454L300.945 417.711Z" fill="black"/>
<path d="M156.859 100.623C156.381 100.623 155.904 100.615 155.43 100.595L155.462 99.7776C156.406 99.8103 157.362 99.8103 158.306 99.7776L158.338 100.595C157.856 100.611 157.358 100.623 156.864 100.623H156.859ZM152.529 100.378C151.565 100.268 150.597 100.121 149.657 99.941L149.812 99.1405C150.736 99.3161 151.679 99.4632 152.623 99.5694L152.529 100.382V100.378ZM161.231 100.374L161.137 99.5612C162.076 99.455 163.02 99.3079 163.947 99.1282L164.103 99.9288C163.159 100.113 162.191 100.26 161.231 100.37V100.374ZM146.826 99.2834C145.899 99.0302 144.967 98.7361 144.056 98.4094L144.33 97.6415C145.221 97.9601 146.136 98.2501 147.043 98.4952L146.826 99.2834ZM166.93 99.2712L166.713 98.4829C167.624 98.2338 168.535 97.9438 169.426 97.6252L169.703 98.393C168.796 98.7198 167.865 99.0139 166.934 99.2712H166.93ZM141.356 97.3229C140.474 96.9268 139.599 96.4938 138.75 96.0323L139.142 95.3134C139.971 95.7668 140.829 96.1916 141.691 96.5755L141.356 97.3188V97.3229ZM172.396 97.3066L172.061 96.5632C172.918 96.1793 173.772 95.7545 174.606 95.3012L174.998 96.02C174.148 96.4816 173.274 96.9186 172.396 97.3107V97.3066ZM136.25 94.5455C135.441 94.0227 134.64 93.4591 133.872 92.875L134.366 92.2256C135.118 92.7974 135.902 93.3488 136.695 93.8635L136.25 94.5496V94.5455ZM177.49 94.5292L177.044 93.843C177.833 93.3325 178.617 92.7811 179.369 92.2052L179.863 92.8546C179.095 93.4428 178.295 94.0023 177.49 94.5292ZM131.629 91.0248C130.906 90.3835 130.203 89.7055 129.533 89.0112L130.122 88.4435C130.775 89.1215 131.466 89.7872 132.173 90.4162L131.629 91.0248ZM182.106 91.0044L181.563 90.3958C182.269 89.7668 182.96 89.1011 183.609 88.423L184.198 88.9908C183.532 89.6851 182.825 90.3631 182.106 91.0044ZM127.601 86.8424C126.988 86.099 126.392 85.323 125.836 84.5347L126.502 84.065C127.046 84.8369 127.63 85.5966 128.23 86.3237L127.601 86.8424ZM186.134 86.822L185.505 86.3032C186.11 85.5721 186.69 84.8124 187.233 84.0405L187.899 84.5102C187.343 85.2985 186.751 86.0745 186.134 86.822ZM124.251 82.1004C123.757 81.2713 123.287 80.4135 122.858 79.5517L123.589 79.1882C124.006 80.0296 124.468 80.871 124.95 81.6838L124.247 82.1045L124.251 82.1004ZM189.48 82.0718L188.777 81.6552C189.259 80.8424 189.717 80.0051 190.138 79.1555L190.869 79.5191C190.44 80.385 189.97 81.2427 189.476 82.0718H189.48ZM121.669 76.905C121.306 76.0106 120.975 75.0916 120.685 74.1726L121.465 73.9234C121.751 74.822 122.074 75.7206 122.429 76.5987L121.674 76.905H121.669ZM192.062 76.8683L191.306 76.562C191.661 75.6838 191.984 74.7812 192.266 73.8826L193.046 74.1277C192.756 75.0467 192.425 75.9697 192.062 76.8642V76.8683ZM119.913 71.3707C119.692 70.4313 119.508 69.4715 119.361 68.5198L120.17 68.3973C120.313 69.3285 120.497 70.2679 120.709 71.1869L119.913 71.3748V71.3707ZM193.814 71.3258L193.018 71.142C193.23 70.2271 193.414 69.2877 193.557 68.3523L194.366 68.4749C194.219 69.4306 194.035 70.3904 193.814 71.3258ZM119.026 65.6321C118.953 64.6723 118.916 63.6961 118.912 62.7281H119.729C119.729 63.6716 119.766 64.6274 119.839 65.5709L119.026 65.6321ZM194.693 65.5872L193.88 65.5259C193.949 64.5865 193.986 63.6308 193.986 62.6832V62.5974H194.803V62.6832C194.803 63.6512 194.766 64.6274 194.693 65.5872ZM119.835 59.8854L119.022 59.8241C119.096 58.8602 119.202 57.8922 119.349 56.9364L120.158 57.059C120.015 57.9902 119.909 58.9419 119.839 59.8854H119.835ZM193.871 59.7588C193.798 58.8153 193.688 57.8636 193.541 56.9364L194.349 56.8098C194.497 57.7615 194.611 58.7336 194.684 59.6934L193.871 59.7588ZM120.689 54.2693L119.892 54.0855C120.109 53.1461 120.366 52.2026 120.656 51.2836L121.437 51.5287C121.155 52.4314 120.901 53.3544 120.689 54.2693ZM192.997 54.1468C192.781 53.2278 192.527 52.3088 192.241 51.4062L193.022 51.157C193.316 52.076 193.577 53.0195 193.798 53.9589L193.001 54.1468H192.997ZM122.393 48.8493L121.633 48.543C121.992 47.6445 122.393 46.7541 122.821 45.8882L123.553 46.2517C123.136 47.0971 122.744 47.9712 122.388 48.8493H122.393ZM191.273 48.7309C190.918 47.8568 190.526 46.9869 190.105 46.1414L190.836 45.7779C191.265 46.6397 191.67 47.5301 192.029 48.4246L191.273 48.7309ZM124.913 43.752L124.21 43.3354C124.705 42.5063 125.236 41.6853 125.791 40.897L126.461 41.3667C125.918 42.1387 125.399 42.9433 124.917 43.7561L124.913 43.752ZM188.74 43.6499C188.258 42.8412 187.736 42.0407 187.188 41.2687L187.854 40.799C188.414 41.5873 188.945 42.4083 189.439 43.2333L188.736 43.654L188.74 43.6499ZM128.185 39.0999L127.556 38.5812C128.169 37.8378 128.819 37.1067 129.489 36.4083L130.077 36.9719C129.423 37.654 128.786 38.3688 128.185 39.0958V39.0999ZM185.46 39.0141C184.86 38.2871 184.218 37.5764 183.565 36.8943L184.153 36.3266C184.823 37.0209 185.476 37.748 186.089 38.4913L185.46 39.0141ZM132.119 35.0033L131.576 34.3947C132.295 33.7493 133.051 33.1285 133.815 32.5404L134.313 33.1898C133.566 33.7616 132.826 34.3743 132.124 35.0033H132.119ZM181.51 34.9257C180.803 34.2967 180.063 33.6922 179.312 33.1203L179.806 32.4709C180.574 33.055 181.33 33.6758 182.049 34.3171L181.506 34.9257H181.51ZM136.634 31.5479L136.188 30.8617C136.997 30.3348 137.835 29.8324 138.68 29.3709L139.072 30.0897C138.243 30.5431 137.422 31.0332 136.634 31.5479ZM176.983 31.4866C176.187 30.972 175.365 30.4859 174.536 30.0366L174.924 29.3178C175.77 29.7752 176.611 30.2776 177.424 30.8004L176.983 31.4866ZM141.618 28.8277L141.283 28.0843C142.161 27.6881 143.064 27.3205 143.975 26.9938L144.253 27.7616C143.366 28.0843 142.48 28.4396 141.622 28.8277H141.618ZM171.987 28.7746C171.121 28.3865 170.234 28.0312 169.344 27.7167L169.618 26.9488C170.525 27.2715 171.431 27.6391 172.318 28.0312L171.983 28.7786L171.987 28.7746ZM146.961 26.8998L146.744 26.1115C147.672 25.8542 148.624 25.6337 149.576 25.4458L149.731 26.2463C148.803 26.426 147.872 26.6466 146.961 26.8957V26.8998ZM166.631 26.8631C165.72 26.6139 164.789 26.4015 163.862 26.2218L164.017 25.4213C164.965 25.601 165.916 25.8215 166.848 26.0748L166.635 26.8631H166.631ZM152.537 25.8134L152.443 25.0006C153.399 24.8903 154.376 24.8127 155.34 24.7759L155.372 25.5928C154.429 25.6296 153.473 25.7031 152.537 25.8134ZM161.051 25.797C160.115 25.6908 159.164 25.6214 158.216 25.5887L158.244 24.7719C159.213 24.8045 160.189 24.878 161.141 24.9842L161.051 25.797Z" fill="black"/>
<path d="M150.164 465.364L109.365 488.967C110.255 488.992 111.134 489 112.008 488.996L150.164 466.92C150.188 466.401 150.188 465.882 150.164 465.364Z" fill="black"/>
<path d="M122.27 488.24C123.602 488.044 124.905 487.811 126.171 487.542L147.48 475.211C147.95 474.48 148.362 473.72 148.718 472.94L122.27 488.24Z" fill="black"/>
<path d="M90.4584 486.435C91.0549 486.578 91.6513 486.721 92.26 486.856C92.3009 486.864 92.3417 486.872 92.3826 486.88L146.916 455.332C146.687 454.948 146.45 454.569 146.197 454.193L90.4625 486.439L90.4584 486.435Z" fill="black"/>
<path d="M82.6516 484.217C83.2235 484.409 83.7996 484.593 84.3837 484.773L143.46 450.594C143.162 450.251 142.855 449.908 142.541 449.569L82.6516 484.217Z" fill="black"/>
<path d="M99.2131 488.106C99.9484 488.212 100.68 488.306 101.407 488.391L149.33 460.667C149.196 460.234 149.049 459.801 148.885 459.368L99.2131 488.106Z" fill="black"/>
<path d="M0.563329 445.342L32.379 426.934C31.517 426.889 30.6673 426.864 29.8257 426.856L0.477539 443.835C0.477539 444.337 0.506136 444.84 0.563329 445.342Z" fill="black"/>
<path d="M19.3513 427.734C17.6927 428.049 16.1076 428.445 14.6165 428.919L4.1992 434.947C3.38216 435.805 2.69175 436.724 2.13208 437.7L19.3513 427.738V427.734Z" fill="black"/>
<path d="M50.0352 430.193C49.4551 430.005 48.8669 429.829 48.2745 429.654L4.90588 454.744C5.18776 455.095 5.48598 455.443 5.79238 455.786L50.0311 430.193H50.0352Z" fill="black"/>
<path d="M57.0291 432.885C56.5267 432.656 56.0119 432.435 55.4972 432.215L9.14227 459.033C9.50177 459.339 9.87353 459.645 10.2575 459.944L57.0291 432.885Z" fill="black"/>
<path d="M41.9752 428.122C41.2888 427.987 40.6066 427.865 39.9244 427.755L1.8175 449.802C1.99725 450.206 2.19334 450.611 2.40986 451.015L41.9792 428.122H41.9752Z" fill="black"/>
<path d="M68.0755 438.411L20.3112 466.046C20.8096 466.279 21.3121 466.503 21.8227 466.728L68.7496 439.579L88.8366 427.959C87.9705 427.922 87.1126 427.902 86.2629 427.889L68.0755 438.411Z" fill="black"/>
<path d="M68.0756 445.146L27.2234 468.782C27.7954 468.974 28.3755 469.158 28.9597 469.334L68.7496 446.314L98.7923 428.931C98.0692 428.821 97.3502 428.718 96.6353 428.625L68.0756 445.146Z" fill="black"/>
<path d="M68.0755 451.885L35.1937 470.91C35.8718 471.049 36.5418 471.18 37.2158 471.298L68.7537 453.053L107.437 430.671C106.807 430.512 106.17 430.364 105.529 430.217L68.0755 451.885Z" fill="black"/>
<path d="M75.6251 481.546C76.1398 481.767 76.6668 481.983 77.1897 482.195L139.199 446.318C138.844 446.008 138.48 445.697 138.112 445.391L75.621 481.546H75.6251Z" fill="black"/>
<path d="M68.0755 431.676L14.2978 462.79C14.7267 463.06 15.1639 463.326 15.6132 463.587L68.7537 432.844L76.4094 428.416C75.1756 428.567 73.9664 428.747 72.7817 428.959L68.0796 431.68L68.0755 431.676Z" fill="black"/>
<path d="M68.0756 472.095L63.3163 474.848C63.7289 475.129 64.1497 475.403 64.5704 475.677L68.7496 473.259L128.353 438.774C127.895 438.521 127.43 438.272 126.96 438.023L68.0756 472.091V472.095Z" fill="black"/>
<path d="M69.2848 478.475C69.7464 478.724 70.2244 478.969 70.6983 479.214L134.248 442.446C133.843 442.164 133.431 441.882 133.01 441.605L69.2807 478.475H69.2848Z" fill="black"/>
<path d="M68.0755 465.355L57.1558 471.674C57.6868 471.588 58.2138 471.498 58.7327 471.4C58.9492 471.58 59.1779 471.756 59.3985 471.935L68.7537 466.524L122.09 435.666C121.58 435.441 121.065 435.221 120.546 435.004L68.0796 465.36L68.0755 465.355Z" fill="black"/>
<path d="M68.0756 458.62L44.6265 472.189C45.4639 472.242 46.2973 472.283 47.1184 472.303L68.7496 459.788L115.141 432.95C114.578 432.754 114.006 432.566 113.434 432.382L68.0756 458.624V458.62Z" fill="black"/>
<path d="M183.597 145.535C184.631 145.715 188.843 146.47 189.447 146.303C190.264 146.078 190.767 144.98 190.505 144.151C190.203 143.187 186.784 142.398 185.766 141.933C183.548 140.92 181.187 139.788 179.737 137.754C179.108 136.868 178.246 134.969 179.769 134.532C180.468 134.332 187.915 138.338 189.615 138.902C193.406 140.164 195.951 139.453 198.708 142.88C200.747 145.413 201.396 148.308 202.72 151.123C205.645 157.355 212.141 162.665 217.104 167.366C223.171 173.109 229.286 178.917 235.688 184.333C236.394 184.929 238.519 186.8 239.144 187.029C239.769 187.257 240.549 186.11 240.345 185.419C240.075 184.492 237.555 183.206 237.526 182.107C237.477 180.306 240.504 175.939 240.386 173.717C243.572 175.331 246.644 177.214 249.904 178.696C250.636 179.027 254.1 180.105 254.231 180.293C254.68 180.935 253.826 183.169 253.826 184.133C253.826 185.415 254.766 187.384 254.508 188.425C253.814 191.231 247.024 200.948 244.606 202.651C237.199 207.875 230.222 202.382 224.654 197.403C215.474 189.193 208.836 179.252 201.16 169.837C199.717 168.065 197.091 164.544 194.844 164.307C191.122 163.919 186.755 164.65 182.976 164.327C179.418 164.021 168.453 160.451 165.639 158.381C165.124 158.001 163.502 156.285 164.965 156.6C168.723 157.408 172.816 159.054 176.554 160.129C177.286 160.321 179.892 160.995 180.305 160.619C180.349 160.578 180.66 159.594 180.558 159.414C179.949 158.368 174.479 156.812 172.98 156.351C169.912 155.407 166.329 154.835 163.359 153.716C161.79 153.124 159.691 151.703 162.522 151.261L178.07 155.346C179.577 155.321 180.893 155.856 180.276 153.957C180.08 153.353 179.336 153.189 178.793 152.989C172.796 150.775 165.851 150.044 159.784 147.896C157.791 146.646 158.449 145.27 160.826 145.625C166.505 146.483 172.882 148.782 178.589 149.959C180.603 150.195 181.183 148.28 179.336 147.545L163.159 143.705C161.529 140.475 165.377 141.614 167.354 141.961C172.502 142.872 177.698 144.134 182.78 145.123L183.597 145.531V145.535Z" fill="#FCFCFD"/>
<path d="M347.823 190.055C348.346 195.977 350.241 201.994 351.058 207.855C351.557 211.449 352.116 217.216 350.221 220.427C348.452 223.425 341.372 225.132 338.026 226.206C332.524 227.97 326.547 229.751 320.958 231.197C315.823 232.52 308.968 233.215 304.303 234.967C300.88 236.254 297.048 239.611 293.367 241.188C287.954 243.508 280.956 243.998 274.657 243.103C274.15 243.03 277.496 242.691 279.052 242.54C279.449 242.503 279.71 242.111 279.596 241.731C279.51 241.445 279.24 241.257 278.946 241.282C276.908 241.437 269.366 241.988 268.574 241.731C267.695 241.449 266.764 241.245 266.127 240.501L282.672 238.406C283.256 238.333 283.611 237.72 283.379 237.177C283.215 236.797 282.819 236.576 282.41 236.65C280.56 236.968 275.49 237.81 273.296 237.871C270.702 237.949 266.413 238.508 263.876 237.859C262.495 237.503 262.585 236.245 263.598 235.927C265.355 235.375 270.249 235.641 272.875 235.408C273.68 235.339 277.868 234.367 279.89 233.893C280.466 233.758 280.776 233.137 280.547 232.594C280.368 232.177 279.922 231.945 279.477 232.034C277.79 232.39 273.819 233.211 272.912 233.272C270.653 233.435 266.188 233.897 263.908 234.019C263.373 234.048 262.397 233.938 262.454 232.741C262.532 231.148 271.029 230.278 272.671 229.89C275.539 229.216 285.519 226.002 286.765 223.559C287.149 222.808 287.059 222.334 286.295 221.971L278.203 221.076C276.005 221.288 272.908 217.923 275.796 217.086C276.977 216.742 281.953 216.918 283.497 217.008C290.14 217.396 293.293 219.704 299.119 221.403C301.68 222.15 302.383 221.877 304.842 221.211C314.426 218.617 323.986 214.341 333.545 211.514C334.836 210.608 332.703 204.885 332.213 203.431C331.866 202.398 329.002 195.72 329.447 195.373L347.831 190.063L347.823 190.055Z" fill="#FCFCFD"/>
<path d="M249.774 263.166L196.131 230.413C186.424 225.246 176.428 223.972 166.153 228.371C149.955 237.238 133.974 246.51 118.021 255.81C117.074 252.75 117.09 249.401 116.583 246.22C116.653 245.558 117.119 245.154 117.678 244.843C132.365 236.805 146.585 227.856 161.251 219.789C170.516 214.692 177.469 211.192 188.197 215.464C209.51 227.211 230.026 240.395 251.007 252.734L251.44 253.964L249.774 263.162V263.166Z" fill="#FCFCFD"/>
<path d="M279.42 88.5619C279.42 88.5619 279.714 89.3992 279.988 89.7872C283.897 95.3869 288.738 99.4713 295.699 100.558C298.098 97.082 302.444 93.6347 306.162 97.5353C309.7 101.248 308.016 107.812 304.095 110.593C303.241 111.198 300.737 111.953 300.491 112.709C300.177 113.685 300.332 120.2 300.471 121.605C300.798 124.868 303.51 128.058 302.697 130.848C301.639 134.483 293.833 141.41 290.593 143.66C290.131 143.979 287.778 145.531 287.562 145.527C287.251 145.523 287.051 144.816 286.953 144.51C286.434 142.909 285.895 139.645 285.756 137.946C285.634 136.451 285.442 130.978 285.768 129.859C285.94 129.279 289.155 128.507 290.095 128.058C291.557 127.36 294.266 125.436 295.062 124.039C297.24 120.212 292.117 123.696 290.74 124.211C284.968 126.355 278.476 124.917 274.481 120.224C269.297 114.142 270.012 105.435 269.799 97.9479C269.783 97.4005 269.374 96.747 269.448 96.3713C269.579 95.681 271.168 96.1548 275.053 93.0793C278.938 90.0037 279.416 88.5701 279.416 88.5701L279.42 88.5619Z" fill="#FCFCFD"/>
<path d="M338.304 424.789C336.07 427.085 331.163 429.817 327.977 430.189C323.887 430.663 317.678 429.405 316.555 425.271C316.191 423.927 316.493 422.494 317.249 421.322C319.884 417.245 323.079 413.529 325.432 409.26C326.486 407.345 331.159 398.882 331.486 396.317C332.336 396.178 332.663 397.036 333.386 397.481C337.356 399.923 343.292 399.903 346.981 396.905L349.048 393.87C350.429 398.241 353.673 400.855 350.462 405.286C348.603 407.851 346.311 410.061 344.632 412.936C342.365 416.812 341.523 421.489 338.308 424.789H338.304Z" fill="#FCFCFD"/>
<path d="M264.889 389.782C267.168 394.561 275.184 395.623 279.71 393.772C280.294 393.531 280.519 392.87 281.23 393.049C282.165 396.239 283.901 399.421 282.676 402.868C281.352 406.601 271.462 407.753 267.842 408.864C258.426 411.76 251.346 418.463 240.782 414.905C235.81 413.23 235.949 410.608 238.98 406.965C241.742 403.644 250.235 399.507 254.247 396.905C257.266 394.949 260.281 392.837 263.226 390.77C263.827 390.35 264.092 389.61 264.885 389.778L264.889 389.782Z" fill="#FCFCFD"/>
<path d="M235.888 414.697C243.323 420.607 252.029 418.226 259.983 414.897C264.627 412.953 267.577 411.356 272.643 409.991C276.871 408.852 282.88 408.631 284.502 403.669C285.838 404.253 285.397 406.458 284.996 407.639C283.517 411.989 277.512 411.842 273.791 412.773C262.503 415.599 251.963 424.336 240.059 420.121C237.297 419.145 235.851 417.821 235.888 414.697Z" fill="#FCFCFD"/>
<path d="M353.538 404.894C353.636 405.045 353.975 407.137 353.942 407.512C353.701 410.437 347.635 416.894 345.854 419.88C343.496 423.829 342.961 427.199 339.252 430.434C333.909 435.094 324.263 438.207 318.017 433.673C317.118 433.019 314.745 429.919 315.545 428.996C315.929 428.555 317.417 430.283 317.854 430.565C325.281 435.384 336.674 431.177 341.458 424.471C343.701 421.326 344.628 417.168 346.667 413.749C348.436 410.784 350.817 408.444 352.639 405.425C352.803 405.152 353.023 404.102 353.534 404.894H353.538Z" fill="#FCFCFD"/>
<path d="M345.372 385.293C345.674 389.145 348.497 393.303 344.371 395.929C342.349 397.22 337.148 396.95 335.04 395.827C333.21 394.851 333.484 391.24 332.712 389.378C335.571 389.623 338.218 388.377 340.878 387.535L345.372 385.293Z" fill="#FCFCFD"/>
<path d="M280.825 386.106C282.059 393.221 274.624 393.205 269.799 391.207C266.274 389.749 266.188 387.968 266.94 384.472C271.327 386.682 276.029 386.89 280.825 386.106Z" fill="#FCFCFD"/>
<path d="M314.753 140.859C314.806 140.238 314.961 138.943 314.324 138.592C313.033 145.699 308.176 154.186 304.205 160.129C302.963 163.376 302.706 167.766 301.46 170.862C301.276 171.316 301.104 171.859 300.585 172.031L270.604 165.765C269.946 165.3 270.175 164.095 270.294 163.392C270.939 159.565 273.076 155.182 273.795 151.372C273.856 151.037 273.978 150.122 273.88 150.028C273.57 149.738 269.624 150.126 269.158 150.82C268.418 154.586 266.997 158.283 265.375 161.742C262.425 168.044 259.214 170.617 257.985 178.043C256.097 189.442 261.241 200.687 260.387 212.303C259.268 227.464 255.664 243.589 253.042 258.669L252.633 259.894C252.172 262.561 251.877 265.355 251.408 268.063L250.999 269.288C250.909 269.803 251.069 270.465 250.966 271.077C250.068 276.338 248.981 281.582 248.139 286.851C250.497 287.206 252.613 288.824 254.807 289.788C276.76 299.472 300.72 302.286 324.227 297.364C326.478 296.895 327.168 297.172 327.009 294.803C326.714 290.437 325.865 286.083 325.387 281.717C324.063 269.558 322.923 257.329 321.677 245.194L321.269 243.969C321.199 243.299 321.334 242.597 321.269 241.927C321.077 241.817 321.077 241.682 321.269 241.518C321.244 241.249 321.297 240.967 321.269 240.702L320.86 240.293C320.787 239.627 320.934 238.917 320.86 238.251C320.607 237.622 320.468 236.94 320.452 236.209C320.386 235.694 320.664 233.742 320.243 233.754C316.469 235.057 312.445 235.465 308.588 236.397C301.329 238.149 296.525 243.516 288.685 245.088C283.285 246.171 267.753 246.154 263.855 241.943C263.23 241.269 263.095 240.428 262.634 239.897C262.201 239.399 261.449 239.301 261.024 238.647C259.962 237.021 260.693 233.954 260.481 231.998C261.159 228.943 266.343 228.873 268.668 228.342C273.215 227.309 277.336 226.161 281.642 224.36C282.177 223.943 281.72 223.572 281.038 223.543C278.517 223.437 276.327 223.371 274.146 221.852C271.846 220.247 272.034 216.281 274.677 215.15C280.36 214.917 286.357 214.463 291.872 215.975C294.927 216.812 298.857 219.41 301.868 219.41C303.907 219.41 313.299 215.868 315.958 214.966C311.648 206.977 308.576 197.909 307.085 188.915C303.997 170.295 313.27 158.18 314.753 140.854V140.859Z" fill="#FCFCFD"/>
<path d="M319.549 171.152L324.545 192.706C324.594 193.11 324.778 193.604 325.195 193.715C325.775 193.87 333.055 191.848 334.35 191.489L349.874 186.579L339.563 155.636C335.481 144.408 324.169 140.43 314.941 134.507C314.275 135.724 314.553 137.366 314.328 138.592C314.965 138.943 314.81 140.238 314.757 140.858C313.278 158.184 304.001 170.299 307.089 188.92C308.58 197.913 311.652 206.981 315.962 214.97C319.21 213.867 322.392 212.519 325.726 211.661C325.677 206.487 326.796 201.361 326.58 196.182C324.263 196.419 323.553 197.239 322.597 194.65C321.669 187.588 318.34 179.583 317.629 172.664C317.417 170.597 318.005 168.812 319.549 171.152Z" fill="#00FFAA"/>
<path d="M269.999 129.606C269.914 129.606 269.55 129.933 269.154 129.982C267.552 130.194 263.827 130.578 262.548 131.138C261.531 131.587 258.353 134.908 257.544 135.937C255.624 138.375 253.753 141.724 252.155 144.436C247.474 152.368 243.339 160.66 238.817 168.69C238.462 169.976 239.205 169.531 240.112 170.103C242.024 171.304 243.834 172.709 245.823 173.795C247.621 174.775 253.581 177.749 255.289 177.818C256.159 177.855 255.828 177.818 255.893 177.189C256.102 175.286 256.453 172.99 256.759 171.099C257.944 163.801 259.223 156.489 260.62 149.227C261.563 147.9 262.319 148.202 262.462 149.807C262.589 151.221 262.18 153.577 262.005 155.105C261.653 158.144 260.934 161.199 260.51 164.229C260.444 164.683 260.04 165.626 260.808 165.549C262.728 161.276 265.024 157.082 266.437 152.589C267.401 149.526 267.655 146.303 269.088 143.395L276.336 129.606H270.004H269.999Z" fill="#00FFAA"/>
<path d="M298.183 155.342C296.839 154.255 291.835 150.314 290.617 149.836C290.07 149.62 287.909 149.46 287.77 149.62C287.713 149.685 287.791 150.869 287.68 151.364C286.639 156.065 284.559 161.04 283.285 165.728L284.31 166.349L299.184 169.2C299.38 166.807 302.399 160.063 301.451 158.189C301.153 157.596 298.902 155.918 298.179 155.334L298.183 155.342Z" fill="#00FFAA"/>
<path d="M276.765 149.236L273.072 163.907L281.234 165.553L285.728 148.807C282.692 148.549 279.763 149.178 276.765 149.236Z" fill="#00FFAA"/>
<path d="M312.077 134.099C311.53 132.992 309.802 132.6 309.013 132.057C308.429 131.656 305.39 129.132 304.928 129.606C304.834 129.7 305.01 130.942 304.912 131.428C304.164 135.136 297.493 141.447 294.507 143.897C293.154 145.008 291.59 145.866 290.225 146.965C293.649 149.003 296.847 151.315 300.026 153.704C301.067 154.484 302.028 155.399 303.094 156.15C303.433 156.387 303.47 156.735 304.107 156.563C305.475 152.086 308.237 148.194 310.03 143.897C310.937 141.724 313.09 136.141 312.077 134.099Z" fill="#00FFAA"/>
<path d="M278.962 146.344C280.903 146.209 282.958 146.458 284.906 146.352C283.248 141.083 283.133 135.52 283.276 130.014C282.733 130.006 282.186 130.027 281.642 130.014C280.711 129.994 279.755 129.965 278.828 130.063L270.236 147.006C269.942 147.871 271.062 147.647 271.638 147.586C273.574 147.389 275.539 146.977 277.553 146.76C277.843 146.728 278.325 146.385 278.958 146.344H278.962Z" fill="#00FFAA"/>
<path d="M320.452 236.209L320.521 237.981L320.86 238.251C320.762 237.381 320.497 236.564 320.452 236.209Z" fill="#00FFAA"/>
<path d="M251.346 269.027L251.412 268.067C251.399 268.136 251.126 268.574 251.003 269.293L251.346 269.027Z" fill="#00FFAA"/>
<path d="M321.334 244.929L321.677 245.195C321.588 244.304 321.277 244.038 321.269 243.969L321.334 244.929Z" fill="#00FFAA"/>
<path d="M252.98 259.637L253.046 258.677C253.034 258.746 252.76 259.184 252.637 259.903L252.98 259.637Z" fill="#00FFAA"/>
<path d="M118.34 219.593C117.989 203.811 116.171 183.426 102.338 173.064C97.5667 169.49 91.9741 166.941 86.7859 164.058L87.7009 157.547C87.7622 156.939 87.5784 154.799 87.6887 154.692C87.7581 154.627 89.1144 154.737 89.621 154.66C102.759 152.638 103.4 134.217 103.016 123.847C102.951 122.099 102.048 119.546 102.616 117.802C102.73 117.447 106.015 115.078 106.697 114.012C109.598 109.499 107.196 103.315 102.706 100.983C98.0324 98.5564 95.4588 99.8226 91.0672 99.0629C89.2084 98.7402 86.3855 97.1636 84.4205 96.5265C64.2314 89.971 45.7254 102.42 47.9273 124.268C48.7321 132.245 55.0152 138.792 58.3037 145.813C58.6469 149.669 58.026 153.79 56.7881 157.331C49.7371 158.748 42.6084 159.728 36.9463 164.523C24.711 174.89 15.3641 201.851 10.9275 217.22C9.2526 223.032 7.45511 230.168 9.07285 236.139C11.5076 245.141 24.4945 251.885 31.7254 256.859C32.4117 260.789 30.124 266.752 31.9541 270.105C32.4035 270.926 33.7353 272.029 34.107 272.76C34.8015 274.132 33.5555 279.381 33.4452 281.276C32.6118 295.596 35.1569 309.826 38.8214 323.582C40.5453 330.044 43.2457 336.664 44.6142 343.15C45.8153 348.844 44.5979 351.895 42.9638 357.258C38.3516 372.374 31.7662 387.486 27.6483 402.725C27.1989 404.388 27.1826 406.303 26.819 407.582C26.6229 408.264 24.1023 410.339 23.3956 411.156C22.6153 412.058 21.3244 414.284 20.5768 414.893C19.8333 415.497 18.3136 415.706 17.2964 416.42C14.9106 418.095 11.8181 423.119 12.006 426.019C12.2021 429.053 20.8546 441.813 23.4365 444.668C26.0142 447.519 27.346 449.635 31.8111 452.204C36.2763 454.773 39.6466 455.716 42.833 456.496C45.8724 457.244 47.3023 457.53 48.92 455.998C50.2109 454.777 50.2886 454.14 51.1955 449.524C52.1024 444.909 49.9985 438.284 49.7371 437.733C47.527 433.06 45.7172 431.778 45.2556 426.027C45.0105 422.996 46.1135 423.633 47.1062 421.738C48.6259 418.838 49.8147 414.533 51.175 411.376C57.7196 396.186 65.1669 380.408 69.9793 364.589C71.3111 360.211 74.5792 349.289 74.0196 345.233C73.5947 342.146 71.405 336.011 70.4164 332.662C68.4024 325.857 64.8115 312.824 60.567 307.526C58.4467 304.88 55.7709 303.295 53.3566 301.179C51.8123 299.823 51.1505 299.035 53.7242 298.598C55.3338 300.089 57.3764 301.085 59.0391 302.498C65.269 307.788 68.0061 317.198 70.4164 324.791C75.429 340.573 80.4497 357.613 81.2014 374.012C82.1287 394.262 83.6893 414.497 84.6125 434.78C84.682 436.307 84.6289 441.339 84.6289 441.339L84.8413 442.863L85.4745 450.909C85.8013 452.343 85.5113 453.899 85.1763 455.026C84.7555 456.443 84.539 457.91 84.494 459.388L84.4409 461.026C84.4409 461.026 82.5413 463.089 82.3861 465.605C82.7537 469.236 85.5439 471.658 88.5874 473.091C91.4348 474.431 94.1147 474.435 97.5749 474.096C100.369 473.822 106.62 471.976 110.529 470.244C112.077 469.558 121.428 465.188 127.724 461.026C131.311 458.657 133.321 455.871 133.807 455.091C134.505 453.972 134.685 453.756 134.918 452.481C135.151 451.207 134.983 449.03 133.954 446.69C132.924 444.349 130.706 441.601 127.781 440.767C125.934 440.241 122.666 440.641 120.522 440.71C119.778 440.735 116.571 440.865 115.832 440.767C113.834 440.494 110.815 440.469 108.295 440.767C108.352 439.681 108.58 438.472 108.666 437.385C111.027 407.087 113.442 376.042 110.415 345.581C109.026 331.596 107.853 317.574 106.481 303.601C106.191 297.16 105.582 290.748 104.744 284.36C105.427 283.526 105.382 283.624 106.056 284.351C108.576 287.076 110.639 291.94 112.845 295.053C113.381 295.853 114.504 296.021 115.011 296.825C115.636 297.814 119.439 309.699 119.582 311.059C120.031 315.372 116.367 316.557 115.766 319.42C115.076 322.704 115.889 325.567 119.749 324.713C120.268 324.599 120.734 324.072 121.204 324.019C122.397 323.876 124.378 324.607 126.298 324.264C128.206 323.921 128.872 322.606 130.134 321.977C130.967 321.56 132.001 321.503 133.047 320.956C136.581 319.11 138.198 314.764 138.827 310.994C139.497 307.008 139.526 303.732 138.202 299.88C136.327 294.424 133.104 290.114 131.752 284.466C130.739 280.243 129.799 275.991 128.684 271.792C128.002 269.235 119.002 249.413 118.34 219.602V219.593Z" fill="black"/>
<path d="M56.1876 160.39C56.2489 160.472 56.2366 161.591 56.6084 162.375C60.3709 170.282 73.035 170.822 80.3517 169.004C82.2186 168.542 86.2425 166.635 87.7091 167.121C101.149 174.036 109.022 180.457 112.49 195.708C116.334 212.617 115.905 230.523 119.292 247.502C121.236 257.26 124.942 266.927 127.368 276.595C127.867 278.576 129.987 285.81 129.031 287.202C128.786 287.558 125.791 289.539 125.162 289.894C122.16 291.577 118.659 292.447 115.448 293.635C114.819 293.594 109.786 285.295 109.038 283.992C96.427 261.998 91.5288 243.724 87.7255 218.723C87.2884 215.852 87.2679 212.597 86.7123 209.676C86.1772 206.842 83.771 206.846 83.7955 209.125C83.8118 210.877 84.4042 214.149 84.6616 216.097C86.0219 226.386 88.3914 238.672 90.9528 248.723C93.8533 260.106 99.0946 271.261 104.744 281.501C102.963 281.782 101.145 282.117 99.3765 282.477C80.2904 286.377 61.7517 283.457 44.0872 275.464C41.9956 274.516 39.0583 273.148 37.2486 271.808C36.6113 271.339 34.3808 269.362 34.1111 268.823C33.6822 267.973 33.8211 264.526 33.8742 263.333C34.9282 239.141 34.3889 214.516 33.911 190.316C34.0008 188.773 32.6445 188.197 31.6804 189.434C30.9614 190.357 31.2229 194.985 31.2801 196.48C31.9255 213.671 32.1747 231.43 32.1707 248.49C32.1707 249.887 31.2719 251.852 31.709 253.518C25.8631 249.973 18.7998 245.721 14.4286 240.411C7.40202 231.879 12.8599 219.34 15.9565 209.999C20.2786 196.966 25.5363 182.499 33.9028 171.536C36.5949 168.007 40.386 164.63 44.5325 162.922C46.0114 162.314 55.5912 159.598 56.1917 160.39H56.1876Z" fill="#FDD326"/>
<path d="M85.066 156.445C85.0211 157.637 84.4859 164.769 84.1427 165.14C83.9916 165.3 80.5437 166.235 79.9227 166.386C74.1299 167.779 65.6898 167.942 61.0041 163.67C60.3995 163.118 58.8634 161.354 58.843 160.619C58.8063 159.434 60.1585 155.922 60.473 154.37C60.7141 153.185 60.522 151.911 61.0204 150.755C65.7143 152.062 73.8439 152.695 76.7036 147.855C77.251 146.932 77.9782 143.558 78.1416 143.391C78.4398 143.089 81.1605 143.068 81.5691 141.79C81.9776 140.511 78.8606 140.699 78.0435 140.507C75.8334 139.989 73.8603 137.865 73.1658 135.765C70.7392 128.413 78.3172 122.822 83.5463 128.883C84.1101 129.532 84.9761 131.399 85.1028 131.481C86.745 132.588 89.3882 127.196 89.6823 125.852C90.2175 123.422 89.4985 120.853 90.3441 118.423C93.5673 118.378 96.8437 118.603 99.9362 117.52C99.5685 119.252 100.3 120.996 100.386 122.54C100.729 128.891 100.377 137.954 98.0897 143.877C96.382 148.296 93.6449 151.355 88.7549 152.033C87.1331 152.258 85.3152 151.298 85.0701 153.381L85.5072 154.255C85.5358 154.533 85.5113 154.843 85.5072 155.129L85.0701 156.44L85.066 156.445Z" fill="#FCFCFD"/>
<path d="M88.1258 451.158C89.2819 449.002 92.8361 450.562 93.5305 450.75C94.3108 450.962 94.5478 452.784 95.3117 453.372C95.7406 453.703 97.4523 454.172 98.0161 454.205C98.7392 454.25 101.468 453.862 102.244 453.682C103.245 453.454 106.75 451.991 107.163 451.166L107.812 445.473C108.989 445.71 109.561 448.765 110.231 448.965C110.86 449.153 111.73 448.626 111.988 448.091C112.727 446.559 108.764 442.72 109.12 442.413C110.533 441.204 113.495 447.837 114.202 448.042C115.742 448.487 115.893 448.017 115.664 446.584C115.472 445.375 113.001 442.969 113.495 442.413C113.605 442.291 115.864 443.994 116.134 444.366C116.927 445.464 116.963 448.932 119.194 447.458C120.836 446.371 117.208 442.597 117.429 442.417C121.743 442.81 126.274 440.878 129.468 444.59C132.736 448.393 129.096 451.387 126.139 453.527C120.534 457.587 104.667 465.453 97.9753 466.033C95.1401 466.279 91.733 466.217 89.2901 464.649C84.4981 461.565 87.991 455.561 88.1299 451.162L88.1258 451.158Z" fill="#FCFCFD"/>
<path d="M127.908 321.058C127.908 321.058 129.779 319.13 130.608 315.589C130.943 314.159 131.27 311.876 131.458 310.459C131.543 309.822 130.992 309.279 130.355 309.377C129.905 309.442 129.562 309.809 129.529 310.263C129.46 311.247 129.284 312.999 128.859 314.527C128.198 316.912 126.739 322.005 122.83 322.005C124.141 320.637 124.84 319.383 125.787 317.092C126.294 315.867 126.756 312.607 126.984 310.761C127.07 310.087 126.498 309.519 125.824 309.597C125.322 309.654 124.934 310.063 124.905 310.569C124.836 311.774 124.652 313.988 124.223 315.581C123.483 318.297 121.612 321.07 119.937 321.826C118.111 322.647 117.368 322.373 118.062 320.388C118.479 319.195 119.794 318.125 120.424 317.067C122.887 312.934 122.303 311.264 121.049 306.959C120.607 305.451 117.041 296.364 117.437 295.939C122.004 294.411 126.743 292.647 130.33 289.371C131.037 289.363 135.947 300.673 136.368 302.135C137.59 306.387 136.589 314.515 133.402 317.799C133.378 317.823 134.281 315.801 134.579 314.241C134.848 312.836 135.032 311.202 135.13 310.169C135.179 309.646 134.718 309.217 134.199 309.307C133.848 309.368 133.578 309.646 133.537 310.001C133.431 310.929 133.214 312.726 133.043 313.82C132.687 316.075 131.952 318.526 130.837 319.624C129.742 320.703 128.676 321.201 127.904 321.05L127.908 321.058Z" fill="#FCFCFD"/>
<path d="M43.07 424.058C43.2497 424.201 42.9923 427.808 43.07 428.649C43.4907 433.158 47.3308 437.982 48.8587 442.54C48.9772 442.895 49.5981 443.704 48.5482 443.287C46.2401 442.368 40.4881 435.294 39.2094 432.946C35.9331 426.925 37.6775 423.396 30.5284 418.887C28.1875 417.413 25.7568 416.792 23.4037 415.526C23.7428 415.117 23.943 414.631 24.2657 414.207C24.6497 413.704 28.0527 410.077 28.3142 409.951C30.7122 408.803 36.983 410.996 37.3711 413.794C37.8695 417.343 37.416 419.774 40.0755 422.898C41.3419 424.385 42.8003 423.85 43.0659 424.062L43.07 424.058Z" fill="#FCFCFD"/>
<path d="M49.5941 446.392L48.9854 452.469C48.0172 451.795 47.5719 450.668 46.808 449.835C43.8094 446.58 39.8427 443.908 36.9585 440.441C33.0817 435.78 32.6895 430.536 27.7791 426.443C24.5109 423.719 20.393 422.094 16.4017 420.77C18.2728 418.998 18.5506 417.699 21.4347 417.919C25.1114 418.201 31.3128 421.693 33.388 424.773C35.2182 427.489 35.6104 431.194 37.1546 434.126C39.6507 438.864 44.7123 444.211 49.59 446.396L49.5941 446.392Z" fill="#FCFCFD"/>
<path d="M85.499 463.84C88.134 469.481 96.4596 469.248 101.709 468.018C107.159 466.74 127.973 456.778 130.976 452.592L132.732 449.41C133.088 452.11 131.204 454.908 129.464 456.852C124.206 462.733 103.67 472.234 95.7978 472.601C92.738 472.744 89.2533 471.592 86.8431 469.705C84.8985 468.186 83.3134 465.903 85.4949 463.832L85.499 463.84Z" fill="#FCFCFD"/>
<path d="M85.1354 155.419C85.0129 155.754 85.0782 156.102 85.066 156.445L85.4337 156.159C85.5521 155.824 85.4949 155.477 85.5031 155.133L85.1354 155.419Z" fill="#00FFAA"/>
<path d="M85.5031 154.26C85.4827 154.055 85.5031 153.843 85.4295 153.643L85.066 153.385C85.0414 153.594 85.0619 153.798 85.115 153.998L85.5031 154.26Z" fill="#00FFAA"/>
<path d="M182.78 145.127L183.021 145.462L183.597 145.535C183.548 145.527 183.552 145.278 182.78 145.127Z" fill="#00FFAA"/>
<path d="M321.269 241.518L320.864 241.723L321.269 241.927C321.257 241.792 321.282 241.653 321.269 241.518Z" fill="#00FFAA"/>
<path d="M320.86 240.293L321.269 240.702C321.228 240.293 320.864 240.322 320.86 240.293Z" fill="#00FFAA"/>
<path d="M193.712 152.593C195.297 152.438 197.54 152.556 199.011 153.202C200.24 153.741 200.98 154.754 199.399 155.448C198.263 155.946 197.176 155.08 196.016 154.962C194.517 154.811 191.204 155.444 189.721 155.954C188.128 156.506 186.367 157.931 184.843 158.434C183.479 158.883 183.197 157.278 183.977 156.334C185.542 154.439 191.269 152.834 193.712 152.593Z" fill="black"/>
<path d="M289.086 159.332C286.88 157.131 290.94 153.806 292.48 156.138C293.816 158.16 290.883 161.125 289.086 159.332Z" fill="black"/>
<path d="M115.072 35.6608C137.839 33.4063 151.72 59.7506 137.716 77.6933C124.966 94.0309 99.74 88.1208 93.7429 68.7975C89.049 53.673 99.1395 37.2415 115.072 35.6608Z" fill="black"/>
<path d="M114.071 62.6832V75.7002H105.7C105.406 75.7002 105.312 75.0548 105.288 74.7812C104.953 70.758 105.741 66.6941 105.566 62.6832H114.067H114.071Z" fill="#FCFCFD"/>
<path d="M121.776 75.7002V62.6832H129.881C130.016 62.6832 130.306 63.1243 130.285 63.3408L130.526 75.0467C130.596 75.2713 130.265 75.7002 130.146 75.7002H121.776Z" fill="#FCFCFD"/>
<path d="M132.401 55.511C132.749 57.353 132.675 59.2155 132.667 61.0903L121.772 61.3558V55.511H132.401Z" fill="#FCFCFD"/>
<path d="M120.182 62.6832H115.399V75.7002H120.182V62.6832Z" fill="#FDD326"/>
<path d="M114.071 55.511V60.9555C114.071 61.8295 110.002 61.1066 109.173 61.0821C107.269 61.0249 105.349 61.1393 103.445 61.0903C103.351 59.2074 103.903 57.4102 103.711 55.511H114.075H114.071Z" fill="#FCFCFD"/>
<path d="M120.182 55.511H115.664V61.0903H120.182V55.511Z" fill="#FDD326"/>
<path d="M125.375 46.4681C121.923 45.1816 119.292 50.0093 117.658 52.3211C116.187 50.0502 114.177 45.2796 110.803 46.0025C108.151 46.5703 107.102 49.8255 108.638 52.0433C109.283 52.9746 110.774 53.8977 111.865 54.1305C113.389 54.4531 122.343 54.4041 123.973 54.1264C128.067 53.4239 129.35 47.9508 125.375 46.4722V46.4681ZM113.425 52.3047C111.873 52.1128 109.299 50.72 110.219 48.8739C111.036 47.2319 112.764 48.494 113.536 49.5396L115.399 52.3252C114.745 52.3007 114.079 52.3864 113.43 52.3047H113.425ZM119.917 52.3252C119.733 52.1618 120.791 50.8221 120.979 50.6016C121.265 50.2625 122.278 49.1761 122.58 49.0168C123.177 48.7023 124.652 48.4164 125.17 48.931C125.313 49.0699 125.473 49.6009 125.489 49.8214C125.689 52.125 121.6 52.5784 119.913 52.3252H119.917Z" fill="#FCFCFD"/>
<path d="M204.473 99.5306C204.473 85.0566 192.737 73.3231 178.26 73.3231C163.783 73.3231 152.047 85.0566 152.047 99.5306C152.047 114.005 163.783 125.738 178.26 125.738C192.737 125.738 204.473 114.005 204.473 99.5306Z" fill="black"/>
<path d="M189.827 92.7566L190.652 91.033H182.257L181.432 92.7566L180.856 93.9574L179.953 95.8362L178.809 98.2174L178.258 99.3652L177.706 98.2174L176.562 95.8362L175.66 93.9574L175.084 92.7566L174.258 91.033H165.863L166.688 92.7566L169.307 98.2134H166.407L167.232 99.937H170.132L170.68 101.081H167.779L168.604 102.804H171.505L172.792 105.488L173.695 107.366L174.05 108.11L174.998 110.083L175.345 110.806H177.359L177.388 110.863L177.416 110.806H179.087L179.116 110.863L179.144 110.806H181.158L181.506 110.083L182.453 108.11L182.809 107.366L183.712 105.488L184.998 102.804H187.899L188.724 101.081H185.824L186.371 99.937H189.272L190.097 98.2134H187.196L189.815 92.7566H189.827ZM185.195 98.2174L184.369 99.9411L183.822 101.085L183.033 102.727L182.993 102.808L182.131 104.605L181.685 102.808L181.542 102.232L181.269 102.808L180.595 104.217L179.647 106.19L178.977 107.583L178.262 109.07L177.547 107.583L176.877 106.19L175.929 104.217L175.255 102.808L174.981 102.232L174.838 102.808L174.393 104.605L173.531 102.808L173.49 102.727L172.702 101.085L172.155 99.9411L171.329 98.2174L168.711 92.7607H171.864L174.483 98.2174L174.569 98.3931L174.614 98.2174L175.026 96.5592L175.823 98.2174L175.929 98.438L176.652 99.9411L177.2 101.085L177.322 101.338L178.029 102.808L178.27 103.311L178.511 102.808L179.218 101.338L179.34 101.085L179.888 99.9411L180.611 98.438L180.717 98.2174L181.514 96.5592L181.926 98.2174L181.971 98.3931L182.057 98.2174L184.676 92.7607H187.829L185.211 98.2174H185.195Z" fill="#FCFCFD"/>
<path d="M180.088 5.01972C192.291 3.81074 203.684 12.1674 206.838 23.8324C212.737 45.6513 190.027 64.4313 169.989 53.2033C148.068 40.9215 155.066 7.49895 180.088 5.01972Z" fill="black"/>
<path d="M192.225 18.9353C188.581 24.9148 177.384 42.6778 177.384 42.6778H172.526L187.466 18.9353H192.225Z" fill="#FCFCFD"/>
<path d="M188.103 32.3198C184.52 32.9366 182.792 37.4416 184.712 40.4478C186.281 42.9025 189.521 43.8092 192.05 42.2C196.654 39.2674 194.166 31.2783 188.103 32.3198ZM189.647 39.8106C186.485 40.2231 186.11 35.7058 188.92 35.2769C191.559 34.8726 192.527 39.4348 189.647 39.8106Z" fill="#FCFCFD"/>
<path d="M174.156 18.486C170.574 19.1027 168.846 23.6078 170.766 26.6139C172.334 29.0686 175.574 29.9754 178.103 28.3661C182.707 25.4335 180.219 17.4444 174.156 18.486ZM175.701 25.9767C172.539 26.3893 172.163 21.8719 174.973 21.4431C177.612 21.0387 178.581 25.601 175.701 25.9767Z" fill="#FCFCFD"/>
<path d="M233.322 128.426C222.158 128.426 216.479 122.299 216.406 122.221C216.254 122.054 216.267 121.797 216.434 121.645C216.602 121.494 216.859 121.507 217.01 121.674C217.104 121.776 226.463 131.828 244.945 125.55C245.157 125.477 245.39 125.591 245.464 125.807C245.537 126.02 245.423 126.253 245.21 126.326C240.729 127.846 236.762 128.43 233.322 128.43V128.426Z" fill="black"/>
<path d="M370.745 325.232L369.793 322.683C369.209 321.715 368.433 321.033 367.542 320.637L336.866 302.106C336.842 302.821 336.809 303.687 336.78 304.679C349.101 312.681 349.175 312.342 363.007 320.801C362.039 321.217 361.059 321.867 360.103 322.753C359.956 322.892 359.813 323.031 359.67 323.178C359.494 323.357 359.327 323.541 359.159 323.729C357.983 325.061 357.027 326.637 356.336 328.3L336.613 316.32C336.613 319.359 336.65 322.643 336.748 326.016C336.764 326.58 336.785 327.148 336.805 327.711L357.635 340.463C359.58 341.884 362.354 341.635 365.021 339.601C365.205 339.458 365.393 339.311 365.577 339.152C365.691 339.054 365.81 338.952 365.924 338.841C368.228 336.697 369.871 333.63 370.569 330.566C370.635 330.276 370.692 329.986 370.741 329.7C371.006 328.144 371.019 326.617 370.745 325.232Z" fill="black"/>
<path d="M336.78 304.679C336.78 304.679 336.78 304.692 336.78 304.696C336.703 307.285 336.629 310.741 336.613 314.69C336.613 315.213 336.613 315.748 336.613 316.291L356.336 328.299C356.438 328.05 356.553 327.801 356.667 327.556C357.321 326.167 358.158 324.86 359.159 323.729C359.327 323.541 359.494 323.357 359.67 323.178C359.813 323.035 359.956 322.892 360.103 322.753C361.059 321.867 362.039 321.217 363.007 320.801C349.175 312.342 349.105 312.681 336.78 304.679Z" fill="#FCFCFD"/>
</g>
<defs>
<clipPath id="clip0_1729_12608">
<rect width="373.045" height="489" fill="white" transform="translate(0.477539)"/>
</clipPath>
</defs>
</svg>
