<svg width="312" height="261" viewBox="0 0 312 261" fill="none" xmlns="http://www.w3.org/2000/svg">
<path d="M301.964 146.419L300.492 142.014L298.276 135.381C296.58 130.726 293.492 127.458 289.845 124.765C289.363 124.409 288.874 124.065 288.374 123.727C284.462 121.086 280.064 118.944 276.097 116.405C275.747 117.04 275.689 117.806 275.659 118.551C275.637 119.087 275.633 119.615 275.549 120.074C275.663 120.136 275.744 120.242 275.81 120.36C276.064 120.837 275.976 121.662 275.935 122.109C274.883 134.384 269.466 143.745 268.59 155.356C268.549 155.906 268.52 156.46 268.498 157.017C268.402 159.629 268.546 162.362 269.028 165.271C269.51 168.169 270.18 171.074 271.011 173.939C271.217 174.647 271.431 175.352 271.659 176.052C273.072 180.436 274.875 184.698 277.021 188.668C279.946 187.677 282.813 186.467 285.816 185.696C285.816 185.355 285.816 185.014 285.823 184.673C285.834 184.112 285.86 183.554 285.893 182.996C286.118 179.262 286.743 175.542 286.585 171.793C284.498 172.006 283.858 172.743 282.997 170.418C282.776 168.73 282.397 166.98 281.956 165.209C281.786 164.53 281.606 163.848 281.422 163.165C280.274 158.917 278.927 154.6 278.522 150.671C278.331 148.815 278.861 147.212 280.252 149.314L283.81 164.618L284.274 166.621L284.752 168.672C284.797 169.035 284.962 169.479 285.338 169.578C285.551 169.633 286.758 169.365 288.201 169.009C288.841 168.851 289.525 168.672 290.188 168.499C291.704 168.099 293.102 167.714 293.584 167.582L300.499 165.403L301.971 164.937L307.572 163.173L301.971 146.419H301.964Z" fill="#00FFAA"/>
<path d="M235.618 112.003C235.541 112.003 235.214 112.297 234.857 112.341C233.414 112.531 230.058 112.876 228.906 113.379C227.99 113.782 225.127 116.765 224.398 117.689C222.669 119.879 220.983 122.887 219.544 125.323C219.519 125.367 219.493 125.415 219.467 125.459C219.217 125.88 218.974 126.306 218.731 126.728C216.534 130.517 214.451 134.384 212.372 138.25C212.14 138.683 211.908 139.112 211.676 139.545C210.315 142.076 208.946 144.604 207.533 147.102C207.213 148.257 207.882 147.857 208.699 148.371C210.422 149.449 212.052 150.711 213.844 151.687C215.463 152.568 220.832 155.238 222.371 155.3C223.154 155.333 222.856 155.3 222.915 154.736C223.103 153.026 223.419 150.965 223.695 149.266C223.813 148.54 223.938 147.81 224.056 147.083C224.141 146.563 224.229 146.042 224.314 145.521C225.09 140.884 225.914 136.251 226.79 131.636C226.886 131.123 226.982 130.609 227.081 130.095C227.11 129.938 227.14 129.78 227.169 129.626C228.019 128.434 228.7 128.705 228.829 130.147C228.855 130.444 228.855 130.792 228.836 131.167C228.81 131.68 228.755 132.238 228.685 132.795C228.593 133.551 228.483 134.303 228.413 134.905C228.097 137.634 227.449 140.378 227.066 143.1C227.007 143.507 226.643 144.354 227.335 144.284C228.777 141.086 230.448 137.931 231.703 134.633C231.88 134.167 232.049 133.694 232.207 133.221C232.27 133.03 232.343 132.839 232.402 132.649C233.271 129.897 233.499 127.003 234.79 124.391L241.319 112.007H235.615L235.618 112.003Z" fill="#00FFAA"/>
<path d="M261.006 135.117C259.796 134.142 255.288 130.602 254.191 130.172C253.698 129.978 251.751 129.835 251.626 129.978C251.575 130.037 251.644 131.101 251.545 131.544C250.724 135.238 249.186 139.123 248.045 142.854C247.895 143.342 247.755 143.83 247.619 144.314C247.608 144.358 247.593 144.402 247.582 144.446L248.505 145.004L248.859 145.07L252.977 145.858L261.904 147.564C262.081 145.414 264.8 139.358 263.947 137.674C263.678 137.142 261.65 135.635 260.999 135.11L261.006 135.117ZM252.811 138.701C250.824 136.724 254.482 133.738 255.869 135.833C257.072 137.648 254.43 140.312 252.811 138.701Z" fill="#00FFAA"/>
<path d="M241.713 129.633L239.663 137.755L239.287 139.244L238.386 142.81L245.738 144.288L245.996 143.327L246.393 141.849L249.786 129.244C247.052 129.013 244.414 129.578 241.713 129.629V129.633Z" fill="#00FFAA"/>
<path d="M273.574 119.002C273.684 118.43 273.754 117.883 273.758 117.396C273.765 116.856 273.695 116.387 273.522 116.038C273.029 115.044 271.472 114.692 270.762 114.204C270.236 113.845 267.498 111.578 267.082 112.003C267.016 112.073 267.108 112.828 267.093 113.338C267.093 113.452 267.082 113.558 267.067 113.639C266.994 113.999 266.854 114.391 266.666 114.798C265.124 118.159 260.09 122.876 257.695 124.839C256.476 125.836 255.067 126.607 253.838 127.594C256.922 129.424 259.803 131.5 262.666 133.646C263.605 134.347 264.469 135.169 265.43 135.844C265.735 136.056 265.768 136.368 266.342 136.214C267.575 132.194 270.063 128.698 271.678 124.839C272.197 123.599 273.169 121.119 273.574 119.002Z" fill="#00FFAA"/>
<path d="M243.692 127.036C245.44 126.915 247.291 127.139 249.047 127.043C247.553 122.311 247.449 117.315 247.578 112.37C247.089 112.363 246.596 112.381 246.106 112.37C245.267 112.352 244.406 112.326 243.571 112.414L235.832 127.63C235.567 128.408 236.575 128.206 237.094 128.151C238.838 127.975 240.608 127.604 242.423 127.41C242.684 127.381 243.118 127.073 243.689 127.036H243.692Z" fill="#00FFAA"/>
<path d="M281.066 207.746L281.128 209.339L281.434 209.581C281.345 208.799 281.106 208.066 281.066 207.746Z" fill="#FCFCFD"/>
<path d="M218.816 237.222L218.875 236.359C218.864 236.422 218.617 236.814 218.507 237.46L218.816 237.222Z" fill="#00FFAA"/>
<path d="M281.861 215.578L282.17 215.817C282.089 215.017 281.809 214.779 281.802 214.716L281.861 215.578Z" fill="#FCFCFD"/>
<path d="M220.288 228.788L220.347 227.926C220.335 227.989 220.089 228.381 219.979 229.027L220.288 228.788Z" fill="#00FFAA"/>
<path d="M69.092 135.187C68.9816 135.488 69.0405 135.8 69.0294 136.108L69.3606 135.851C69.4673 135.55 69.4158 135.238 69.4232 134.93L69.092 135.187Z" fill="#00FFAA"/>
<path d="M69.4236 134.146C69.4052 133.959 69.4236 133.771 69.3573 133.591L69.0294 133.36C69.0073 133.547 69.0257 133.731 69.0736 133.911L69.4236 134.146Z" fill="#00FFAA"/>
<path d="M157.051 125.943L157.268 126.244L157.787 126.31C157.743 126.303 157.747 126.079 157.051 125.943Z" fill="#00FFAA"/>
<path d="M281.802 212.515L281.438 212.699L281.802 212.883C281.791 212.761 281.813 212.636 281.802 212.515Z" fill="#FCFCFD"/>
<path d="M281.434 211.415L281.803 211.782C281.766 211.415 281.438 211.441 281.434 211.415Z" fill="#FCFCFD"/>
<path d="M107.135 244.015C106.223 240.387 105.108 236.759 103.993 233.128C103.047 230.046 102.101 226.961 101.277 223.869C100.743 221.877 100.261 219.885 99.8601 217.886C99.6688 216.928 99.4885 215.964 99.3229 214.999C99.1978 214.276 99.0837 213.554 98.9696 212.827C96.8499 199.111 96.8131 184.886 93.733 171.368C90.6124 157.67 83.5173 151.904 71.4102 145.693C70.0891 145.253 66.4606 146.966 64.7826 147.384C58.1917 149.017 46.7838 148.532 43.3945 141.43C43.0597 140.726 43.0707 139.721 43.0155 139.648C42.4708 138.932 33.8413 141.375 32.5128 141.922C28.7776 143.455 25.3663 146.489 22.9375 149.659C15.3972 159.504 10.6648 172.498 6.77136 184.203C3.98193 192.593 -0.934522 203.854 5.39505 211.518C9.3363 216.29 15.6953 220.109 20.9614 223.289C20.5676 221.793 21.3772 220.028 21.3772 218.774C21.3772 203.451 21.1564 187.501 20.575 172.061C20.5234 170.718 20.2916 166.562 20.9356 165.733C21.8041 164.622 23.0258 165.139 22.9449 166.526C23.3754 188.264 23.8612 210.377 22.9118 232.104C22.8639 233.175 22.7388 236.271 23.1252 237.034C23.3681 237.515 25.381 239.291 25.9514 239.712C27.5816 240.916 30.2276 242.144 32.1117 242.996C48.0239 250.174 64.7237 252.797 81.9166 249.294C83.51 248.971 85.1476 248.67 86.7521 248.417C81.6626 239.221 76.9412 229.203 74.3284 218.979C72.0211 209.951 69.883 198.917 68.6613 189.676C68.4294 187.927 67.8958 184.988 67.8811 183.415C67.859 181.368 70.0265 181.364 70.5086 183.91C71.0054 186.533 71.0275 189.453 71.4213 192.035C74.8473 214.489 79.2596 230.901 90.6197 250.655C91.2932 251.825 95.8269 259.279 96.3936 259.316C99.2861 258.245 102.44 257.467 105.145 255.956C105.711 255.64 108.409 253.861 108.63 253.538C109.491 252.287 107.581 245.791 107.132 244.012L107.135 244.015Z" fill="#FDD326"/>
<path d="M100.659 59.6414V57.1029V51.8976H96.3538V63.5885H100.659V59.6414Z" fill="#FDD326"/>
<path d="M100.663 45.4559H96.5931V50.4669H100.663V45.4559Z" fill="#FDD326"/>
<path d="M136.336 128.434C141.8 130.367 148.056 131.02 153.459 133.008C153.948 133.188 154.618 133.331 154.794 133.877C155.35 135.583 154.165 135.099 152.807 135.125L138.801 131.456C136.251 131.856 138.143 133.129 139.556 133.661C142.227 134.67 145.458 135.18 148.222 136.027C149.576 136.442 154.5 137.839 155.048 138.778C155.144 138.94 154.861 139.824 154.82 139.861C154.449 140.198 152.101 139.589 151.442 139.42C148.078 138.452 144.391 136.974 141.002 136.251C139.688 135.968 141.149 137.509 141.609 137.85C144.141 139.71 154.022 142.92 157.227 143.191C160.631 143.481 164.565 142.825 167.917 143.173C169.941 143.386 172.307 146.548 173.607 148.14C180.521 156.595 186.501 165.524 194.77 172.898C199.786 177.369 206.068 182.299 212.743 177.611C214.918 176.082 221.034 167.355 221.663 164.835C221.895 163.895 221.045 162.131 221.049 160.979C221.049 160.113 221.818 158.107 221.413 157.531C221.295 157.362 218.175 156.397 217.516 156.097C214.579 154.765 211.812 153.074 208.942 151.625C209.048 153.62 206.322 157.542 206.366 159.16C206.391 160.146 208.662 161.306 208.905 162.135C209.089 162.755 208.379 163.782 207.823 163.58C207.26 163.375 205.346 161.698 204.71 161.159C198.943 156.295 193.434 151.078 187.969 145.921C183.498 141.698 177.647 136.93 175.012 131.332C173.824 128.804 173.235 126.2 171.399 123.929C168.911 120.851 166.622 121.49 163.207 120.356C161.68 119.85 154.967 116.251 154.338 116.431C152.966 116.823 153.738 118.529 154.309 119.325C155.615 121.152 157.746 122.172 159.74 123.078C160.657 123.496 163.737 124.204 164.009 125.07C164.241 125.814 163.792 126.798 163.056 127.003C162.515 127.153 158.721 126.475 157.786 126.313L157.267 126.247L157.05 125.947C152.472 125.059 147.791 123.925 143.155 123.107C141.374 122.792 137.907 121.772 139.375 124.674L153.948 128.122C155.608 128.786 155.085 130.503 153.275 130.29C148.134 129.233 142.389 127.168 137.274 126.398C135.136 126.075 134.544 127.311 136.336 128.437V128.434ZM158.129 136.009C159.538 134.307 164.697 132.865 166.898 132.649C168.326 132.509 170.346 132.616 171.671 133.195C172.779 133.679 173.445 134.589 172.02 135.213C170.997 135.66 170.019 134.883 168.973 134.776C167.623 134.64 164.638 135.209 163.303 135.668C161.867 136.163 160.281 137.443 158.909 137.894C157.68 138.298 157.426 136.856 158.129 136.009Z" fill="#FCFCFD"/>
<path d="M308.636 182.285C307.9 177.021 306.193 171.617 305.722 166.298L301.968 167.38L300.496 167.806L292.717 170.047L290.8 170.601L289.162 171.071C288.761 171.382 291.34 177.384 291.653 178.308C292.095 179.614 294.016 184.753 292.853 185.568C292.242 185.748 291.635 185.935 291.024 186.129C290.409 186.324 289.795 186.522 289.18 186.727C281.795 189.174 274.405 192.281 267.001 194.28C264.786 194.878 264.153 195.124 261.845 194.453C256.598 192.927 253.757 190.854 247.773 190.505C246.382 190.425 241.9 190.271 240.836 190.575C238.235 191.327 241.024 194.35 243.004 194.159L250.294 194.962C250.978 195.289 251.059 195.714 250.717 196.389C249.595 198.587 240.605 201.47 238.021 202.075C236.542 202.424 228.888 203.205 228.818 204.636C228.766 205.711 229.646 205.81 230.128 205.784C232.181 205.678 236.203 205.259 238.238 205.113C239.055 205.054 242.632 204.317 244.152 203.998C244.553 203.913 244.954 204.122 245.116 204.5C245.326 204.988 245.043 205.546 244.524 205.667C242.698 206.096 238.93 206.965 238.205 207.028C235.835 207.237 231.43 206.998 229.848 207.493C228.935 207.78 228.854 208.909 230.098 209.229C232.387 209.812 236.247 209.309 238.584 209.24C240.564 209.181 245.131 208.425 246.794 208.143C247.162 208.08 247.519 208.278 247.666 208.616C247.876 209.104 247.556 209.654 247.03 209.72L232.126 211.602C232.7 212.27 233.535 212.453 234.33 212.706C235.044 212.934 241.841 212.438 243.674 212.303C243.942 212.281 244.182 212.449 244.259 212.706C244.362 213.047 244.126 213.399 243.769 213.432C242.367 213.568 239.353 213.876 239.81 213.939C245.484 214.742 251.792 214.306 256.664 212.218C259.98 210.802 263.431 207.787 266.515 206.631C269.595 205.476 273.735 204.834 277.552 204.104C278.048 204.009 278.541 203.913 279.024 203.81C279.888 203.631 280.727 203.447 281.519 203.242C282.619 202.959 283.738 202.659 284.864 202.35C285.508 202.174 286.152 201.995 286.799 201.811C290.203 200.846 293.64 199.801 296.897 198.763C298.803 198.154 302.057 197.314 304.592 196.1C305.126 195.843 305.626 195.571 306.075 195.282C306.87 194.772 307.51 194.203 307.882 193.572C309.589 190.689 309.089 185.505 308.636 182.281V182.285Z" fill="#FCFCFD"/>
<path d="M218.9 223.7L218.51 222.6C199.61 211.518 181.129 199.676 161.93 189.126C152.267 185.289 146.003 188.433 137.657 193.011C125.348 199.764 113.38 207.193 101.1 214.016C101.674 217.237 102.318 220.197 102.984 222.879C115.938 215.358 128.925 207.89 142.069 200.715C151.321 196.764 160.33 197.908 169.073 202.549L217.395 231.965L218.896 223.704L218.9 223.7Z" fill="#FCFCFD"/>
<path d="M239.659 103.573C243.228 107.752 249.01 109.05 254.173 107.194C254.217 107.179 254.261 107.168 254.302 107.15C254.618 107.033 255.155 106.743 255.744 106.431C257.47 105.521 259.66 104.439 258.195 106.996C258.081 107.198 257.915 107.414 257.72 107.634C257.418 107.979 257.036 108.335 256.62 108.683C255.648 109.49 254.493 110.239 253.72 110.606C252.874 111.009 249.978 111.706 249.823 112.223C249.525 113.228 249.702 118.144 249.812 119.487C249.937 121.013 250.419 123.944 250.89 125.382C250.978 125.657 251.159 126.291 251.438 126.295C251.634 126.295 253.753 124.905 254.169 124.619C256.922 122.711 263.343 117.062 264.852 113.687C264.94 113.489 265.018 113.294 265.069 113.111C265.157 112.807 265.198 112.495 265.202 112.183C265.235 109.909 263.321 107.385 263.06 104.81C262.931 103.548 262.791 97.6967 263.078 96.8199C263.299 96.1413 265.555 95.4626 266.324 94.9197C269.857 92.4216 271.377 86.5266 268.186 83.1921C264.837 79.6888 260.922 82.7886 258.762 85.9066C256.031 85.4811 253.665 84.5457 251.571 83.2104C251.063 82.8876 250.574 82.5354 250.099 82.1649C248.023 80.5582 246.228 78.5406 244.608 76.2333C244.362 75.8811 244.097 75.1328 244.097 75.1328C244.097 75.1328 243.666 76.413 240.196 79.1569C240.185 79.1642 240.174 79.1753 240.163 79.1826C240.038 79.2816 239.924 79.366 239.806 79.454C236.571 81.9082 235.228 81.5413 235.114 82.1393C235.052 82.4768 235.42 83.0637 235.431 83.5552C235.622 90.2793 234.978 98.1002 239.648 103.562L239.659 103.573Z" fill="#FCFCFD"/>
<path d="M285.508 248.623C284.813 242.255 284.172 235.864 283.539 229.481C283.48 228.873 283.418 228.26 283.359 227.651C282.965 223.7 282.575 219.753 282.17 215.821L281.861 215.582L281.802 214.72C281.74 214.119 281.861 213.488 281.802 212.886L281.438 212.703L281.802 212.519C281.78 212.277 281.828 212.024 281.802 211.785L281.434 211.419C281.368 210.821 281.501 210.182 281.434 209.584L281.129 209.342L281.066 207.75C281.007 207.288 281.258 205.535 280.879 205.546C280.268 205.755 279.646 205.934 279.024 206.1C278.535 206.228 278.045 206.349 277.552 206.459C275.171 206.995 272.742 207.347 270.38 207.915C263.84 209.489 259.513 214.309 252.451 215.722C247.586 216.694 233.595 216.679 230.084 212.897C229.521 212.292 229.399 211.536 228.984 211.059C228.594 210.612 227.916 210.524 227.534 209.937C226.577 208.477 227.236 205.722 227.044 203.965C227.655 201.221 232.325 201.158 234.419 200.681C238.515 199.753 242.228 198.723 246.107 197.105C246.589 196.731 246.176 196.397 245.562 196.371C243.291 196.276 241.319 196.217 239.354 194.852C237.282 193.411 237.451 189.849 239.832 188.833C244.951 188.624 250.353 188.216 255.321 189.574C258.074 190.326 261.614 192.659 264.326 192.659C266.162 192.659 274.623 189.478 277.018 188.668C274.873 184.698 273.07 180.436 271.657 176.052C271.432 175.352 271.215 174.647 271.009 173.939C270.174 171.074 269.508 168.169 269.025 165.271C268.54 162.358 268.4 159.629 268.496 157.017C268.518 156.456 268.547 155.902 268.588 155.355C269.467 143.745 274.88 134.38 275.933 122.109C275.97 121.662 276.062 120.836 275.808 120.36C275.745 120.239 275.664 120.136 275.546 120.073C275.539 120.11 275.528 120.151 275.521 120.187C274.328 126.548 269.986 134.112 266.427 139.417C265.309 142.333 265.077 146.276 263.954 149.057C263.789 149.464 263.634 149.952 263.167 150.106L258.284 149.09L253.989 148.195L236.16 144.479C235.567 144.061 235.773 142.979 235.88 142.348C236.119 140.932 236.586 139.431 237.098 137.916C237.26 137.443 237.422 136.97 237.584 136.493C238.165 134.802 238.732 133.122 239.03 131.552C239.085 131.251 239.196 130.429 239.107 130.345C238.828 130.084 235.273 130.433 234.853 131.056C234.636 132.153 234.353 133.243 234.021 134.325C233.874 134.806 233.72 135.282 233.554 135.759C232.943 137.505 232.222 139.219 231.449 140.869C230.169 143.595 228.836 145.543 227.674 147.575C227.431 148 227.195 148.426 226.971 148.866C226.032 150.693 225.256 152.722 224.792 155.51C223.092 165.748 227.725 175.847 226.956 186.28C225.948 199.896 222.702 214.379 220.339 227.922L220.28 228.784L219.971 229.023C219.555 231.418 219.291 233.927 218.867 236.36L218.808 237.222L218.499 237.46C218.418 237.922 218.562 238.517 218.47 239.067C217.66 243.792 216.681 248.502 215.923 253.234C218.047 253.553 219.953 255.006 221.929 255.871C226.058 257.687 230.264 259.228 234.526 260.497H286.969C286.969 260.453 286.969 260.417 286.962 260.372C286.697 256.451 285.931 252.541 285.501 248.619L285.508 248.623Z" fill="#FCFCFD"/>
<path d="M82.4211 101.156C79.6354 102.128 76.684 101.926 73.7805 101.967C73.0225 104.146 73.6665 106.457 73.1844 108.639C72.9194 109.846 70.5385 114.685 69.0591 113.694C68.945 113.617 68.1612 111.945 67.657 111.361C62.943 105.917 56.1203 110.939 58.3062 117.542C58.9318 119.428 60.7092 121.335 62.7001 121.801C63.4324 121.974 66.2587 121.761 65.8759 122.953C65.5043 124.101 63.0571 124.123 62.7884 124.391C62.6376 124.542 61.9862 127.572 61.4931 128.401C58.9171 132.748 51.5939 132.179 47.3656 131.005C46.9167 132.043 47.0896 133.188 46.8725 134.252C46.5892 135.642 45.3748 138.797 45.4042 139.864C45.4226 140.524 46.8063 142.106 47.3509 142.604C51.5719 146.441 59.1747 146.295 64.3929 145.044C64.9559 144.908 68.0618 144.068 68.1943 143.925C68.5071 143.591 68.9855 137.186 69.026 136.115C69.037 135.807 68.9782 135.495 69.0886 135.194L69.4198 134.938C69.4234 134.681 69.4455 134.402 69.4198 134.153L69.0702 133.918C69.0186 133.738 69.0039 133.555 69.026 133.368C69.2468 131.497 70.8844 132.359 72.3453 132.157C76.7503 131.552 79.2159 128.804 80.7541 124.831C82.8149 119.512 83.1314 111.372 82.8222 105.668C82.7486 104.281 82.0862 102.719 82.4174 101.16L82.4211 101.156Z" fill="#FCFCFD"/>
<path d="M109.804 255.497C107.246 257.826 104.034 259.301 100.766 260.497H112.512C111.316 257.885 110.113 255.493 109.804 255.497Z" fill="#FCFCFD"/>
<path d="M87.2451 62.7669C87.2672 63.0126 87.3518 63.5922 87.6168 63.5922H95.1571V51.9013H87.499C87.6572 55.5036 86.947 59.1572 87.2488 62.7669H87.2451Z" fill="#FCFCFD"/>
<path d="M109.395 51.8976H102.094V63.5886H109.635C109.741 63.5886 110.039 63.2034 109.977 63.0016L109.76 52.4882C109.778 52.2938 109.52 51.8976 109.395 51.8976Z" fill="#FCFCFD"/>
<path d="M102.098 50.7054L111.912 50.4669C111.92 48.7832 111.986 47.1104 111.673 45.456H102.098V50.7054Z" fill="#FCFCFD"/>
<path d="M85.582 50.4669C87.2968 50.511 89.0264 50.4082 90.7413 50.4596C91.4883 50.4816 95.1536 51.1346 95.1536 50.3459V45.456H85.8175C85.9904 47.1618 85.4936 48.7758 85.5783 50.4669H85.582Z" fill="#FCFCFD"/>
<path d="M105.34 37.3343C104.755 37.1178 104.2 37.0922 103.67 37.2132C103.324 37.2903 102.989 37.4297 102.669 37.6131C100.851 38.6512 99.4082 41.1603 98.3889 42.591C97.0641 40.5514 95.2535 36.2668 92.2139 36.9161C89.8255 37.426 88.8798 40.3496 90.2635 42.3415C90.8449 43.1779 92.1881 44.007 93.1706 44.2161C94.5433 44.5059 102.61 44.4618 104.078 44.2087C107.765 43.5778 108.921 38.6622 105.34 37.3306V37.3343ZM94.5764 42.5763C93.178 42.4039 90.8596 41.153 91.6876 39.4949C92.4236 38.0203 93.9802 39.1538 94.6758 40.0929L96.3538 42.5947C95.765 42.5727 95.1652 42.6497 94.5801 42.5763H94.5764ZM100.803 42.635C100.667 42.624 100.538 42.613 100.424 42.5947C100.258 42.4479 101.211 41.2447 101.381 41.0466C101.638 40.7422 102.551 39.7664 102.823 39.6233C103.361 39.3409 104.689 39.0841 105.156 39.5463C105.285 39.671 105.425 40.1479 105.443 40.346C105.587 41.9931 103.276 42.5873 101.565 42.646C101.289 42.657 101.031 42.6497 100.799 42.635H100.803Z" fill="#FCFCFD"/>
<path d="M144.716 83.3829L144.922 83.8121H142.309L143.052 85.3601H145.665L146.158 86.3873H143.545L144.289 87.9353H146.902L148.061 90.3454L148.874 92.0328L149.194 92.7005L150.048 94.4723L150.361 95.1215H152.175L152.201 95.1729L152.226 95.1215H153.732L153.757 95.1729L153.783 95.1215H155.597L155.91 94.4723L156.764 92.7005L157.084 92.0328L157.897 90.3454L159.057 87.9353H161.669L162.413 86.3873H159.8L160.293 85.3601H162.906L163.649 83.8121H161.036L163.395 78.9112L164.139 77.3632H156.576L155.833 78.9112L155.314 79.9897L154.501 81.6771L153.47 83.8158L152.974 84.8466L152.477 83.8158L151.446 81.6771L150.633 79.9897L150.114 78.9112L149.371 77.3632H141.808L142.552 78.9112L144.705 83.3866L144.716 83.3829ZM145.93 78.9075H147.214L148.587 81.7578L148.907 82.4181L149.577 83.8084L149.654 83.9662L149.695 83.8084L150.066 82.3191L150.784 83.8084L150.88 84.0065L151.531 85.3565L152.024 86.3836L152.134 86.611L152.771 87.9316L152.988 88.3828L153.205 87.9316L153.842 86.611L153.952 86.3836L154.446 85.3565L155.097 84.0065L155.193 83.8084L155.91 82.3191L156.282 83.8084L156.322 83.9662L156.4 83.8084L158.758 78.9075H161.599L159.241 83.8084L158.497 85.3565L158.004 86.3836L157.294 87.8583L157.257 87.9316L156.481 89.5457L156.079 87.9316L155.951 87.4144L155.704 87.9316L155.097 89.1972L154.243 90.969L153.64 92.2199L152.996 93.5552L152.352 92.2199L151.748 90.969L150.894 89.1972L150.287 87.9316L150.041 87.4144L149.912 87.9316L149.511 89.5457L148.734 87.9316L148.697 87.8583L147.987 86.3836L147.494 85.3565L146.751 83.8084L144.392 78.9075H145.948H145.93Z" fill="#FCFCFD"/>
<path d="M152.19 33.9265C152.19 33.9265 162.277 17.9729 165.559 12.6024H161.272L147.814 33.9265H152.19Z" fill="#FCFCFD"/>
<path d="M161.846 24.6272C159.928 24.9574 158.611 26.5201 158.21 28.2992C158.151 28.5633 158.107 28.8274 158.088 29.0952C158.026 30.071 158.239 31.0688 158.791 31.9272C159.542 33.0974 160.716 33.8714 161.993 34.1282C162.298 34.1905 162.607 34.2199 162.92 34.2199C163.767 34.2199 164.62 33.9961 165.4 33.5009C169.548 30.867 167.307 23.6918 161.846 24.6272ZM163.237 31.3549C160.388 31.7254 160.05 27.6683 162.582 27.2831C164.959 26.9199 165.831 31.0174 163.237 31.3549Z" fill="#FCFCFD"/>
<path d="M147.144 20.57C147.28 20.6874 147.42 20.8011 147.567 20.9038C149.087 21.975 151.141 22.1547 152.833 21.0799C156.981 18.4461 154.74 11.2708 149.279 12.2062C146.051 12.7601 144.495 16.8063 146.224 19.5062C146.486 19.9097 146.795 20.2692 147.144 20.5737V20.57ZM150.018 14.8584C152.396 14.4953 153.268 18.5928 150.673 18.9303C147.825 19.3008 147.486 15.2436 150.018 14.8584Z" fill="#FCFCFD"/>
<path d="M311.639 183.514C310.852 177.743 309.634 171.848 308.287 166.078C309.946 165.586 310.797 164.449 310.392 162.685C307.856 156.034 305.692 149.248 303.904 142.326C303.378 140.242 302.73 138.265 301.965 136.39C301.516 135.293 301.026 134.233 300.493 133.21C297.931 128.287 294.399 124.197 289.843 120.958C289.364 120.616 288.871 120.29 288.371 119.967C286.395 118.702 284.246 117.575 281.916 116.603C283.348 116.218 285.806 115.341 288.371 113.823C288.86 113.533 289.353 113.221 289.843 112.884C293.232 110.55 296.5 107.047 297.53 102.018C299.974 90.0922 292.08 88.7166 287.51 82.1613C284.809 78.2875 284.779 72.9795 282.361 67.642C281.975 66.791 281.53 65.9399 281.003 65.0925C279.241 62.2606 276.573 59.4837 272.23 56.9745C269.135 55.188 265.743 54.1132 262.232 53.6437C261.161 53.5006 260.075 53.4162 258.99 53.3869C252.531 53.1998 245.893 54.9276 240.2 58.0017C236.005 60.2687 232.321 63.2584 229.605 66.758C228.56 68.1079 227.611 69.799 226.93 71.6222C225.421 75.6683 225.233 80.3638 228.236 83.4048C228.689 83.8597 229.528 84.1825 229.752 84.4833C230.187 85.0739 227.99 91.0606 227.511 92.1868C225.969 95.8221 223.625 98.8448 223.279 103.008C223.062 105.606 223.761 109.017 225.66 110.917C226.087 111.347 227.559 111.878 226.963 112.363C226.897 112.418 226.396 112.421 226.047 112.718C222.587 115.653 219.894 120.11 217.509 124.27C217.262 124.699 217.02 125.125 216.78 125.547C216.468 126.093 216.162 126.632 215.857 127.157C213.973 130.418 212.184 133.738 210.403 137.058C210.171 137.491 209.939 137.92 209.707 138.353C208.18 141.196 206.649 144.031 205.056 146.83C204.232 149.666 207.117 149.508 207.098 150.682C207.073 152.362 204.589 155.843 204.515 157.854C200.692 155.055 197.354 151.672 193.854 148.492C189.39 144.431 179.977 136.603 177.379 131.533C175.524 127.916 175.016 123.951 171.579 121.174C168.985 119.079 166.53 119.16 163.572 118.151C161.084 117.304 157.319 114.707 155.317 114.274C150.968 113.335 150.57 118.283 152.627 120.991C153.606 122.274 154.938 122.634 155.943 123.738C152.94 122.975 149.871 122.216 146.82 121.644C144.292 121.17 138.408 119.365 136.987 122.267C136.686 122.883 136.903 123.962 136.781 124.079C136.491 124.365 133.723 124.373 133.293 125.906C132.759 127.81 133.193 128.885 134.831 129.927C135.221 130.172 136.02 130.304 136.067 130.348C136.229 130.503 134.864 133.195 136.443 134.549C136.881 134.927 137.837 135.037 138.102 135.462C138.393 135.932 138.239 136.86 138.555 137.579C138.798 138.133 139.979 139.303 140.502 139.673C142.529 141.115 150.302 143.892 152.911 144.545C156.911 145.546 160.517 145.396 164.606 145.396C165.242 145.396 165.816 145.106 166.365 145.121C167.704 145.161 169.371 146.438 170.295 147.392C174.159 151.386 177.975 157.608 181.703 162.065C186.332 167.604 197.917 180.843 205.1 181.665C213.104 182.578 216.924 177.343 220.869 171.397L222.919 167.758C223.438 171.61 224.288 175.48 224.733 179.343C225.623 187.112 223.478 197.079 222.15 204.955C221.266 210.175 220.232 215.384 219.239 220.582L166.501 188.968C161.058 186.048 156.587 184.764 150.272 185.399C142.901 186.14 127.585 196.433 120.501 200.476C114.113 204.119 107.765 207.857 101.365 211.481C101.255 211.543 101.027 211.675 100.736 211.844C99.8233 206.191 99.1536 199.812 98.999 192.82C98.6825 178.646 97.0449 160.337 84.5845 151.031C80.2863 147.821 75.2484 145.532 70.5748 142.942L71.3991 137.095C71.4543 136.548 71.2887 134.626 71.3881 134.53C71.4507 134.472 72.6724 134.571 73.1287 134.501C84.9636 132.685 85.5413 116.141 85.1954 106.827C85.1365 105.257 84.3232 102.964 84.8348 101.398C84.9378 101.079 87.8965 98.9512 88.511 97.9938C91.1238 93.9403 88.96 88.3864 84.9157 86.2918C80.7058 84.1128 78.3874 85.25 74.4314 84.5677C72.7571 84.2779 70.2142 82.8619 68.4441 82.2897C50.2577 76.402 33.5873 87.5831 35.5709 107.205C36.2958 114.369 41.9556 120.25 44.918 126.555C45.2271 130.018 44.6678 133.72 43.5527 136.9C37.2011 138.173 30.7795 139.053 25.6791 143.36C14.6575 152.67 6.23774 176.885 2.24128 190.689C0.732486 195.909 -0.886705 202.317 0.570567 207.681C2.76383 215.766 14.4625 221.822 20.9761 226.29C21.5943 229.819 19.5335 235.175 21.1821 238.186C21.5869 238.924 22.7866 239.914 23.1215 240.571C23.7471 241.803 22.6247 246.517 22.5253 248.219C22.2861 252.324 22.3597 256.422 22.6725 260.497H87.7935C87.5175 257.317 87.1642 254.147 86.7483 250.982C87.3629 250.233 87.3224 250.321 87.9296 250.974C90.1781 253.395 92.0218 257.698 93.9832 260.497H100.758C104.026 259.301 107.235 257.827 109.796 255.497C110.105 255.494 111.305 257.885 112.505 260.497H115.003C113.524 257.445 111.905 254.54 111.073 251.077C110.16 247.284 109.314 243.465 108.309 239.694C108.1 238.909 107.01 236.305 105.649 232.145C116.92 225.479 128.016 218.297 139.493 212.079C152.822 204.856 159.012 206.793 171.509 214.049C185.493 222.167 199.058 231.158 212.861 239.591C213.822 240.178 214.834 240.89 215.919 241.139L213.744 252.35C213.145 254.786 215.106 255.248 216.891 256.121C219.172 257.236 221.66 258.094 223.971 259.147C223.993 259.598 224.008 260.05 224.019 260.501H234.522C230.257 259.232 226.05 257.687 221.925 255.875C219.949 255.006 218.043 253.557 215.919 253.238C216.677 248.505 217.656 243.795 218.466 239.07C218.562 238.52 218.418 237.926 218.495 237.464C218.606 236.818 218.852 236.426 218.863 236.363C219.286 233.931 219.551 231.422 219.967 229.027C220.078 228.381 220.324 227.988 220.335 227.926C222.694 214.383 225.944 199.9 226.952 186.283C227.725 175.85 223.092 165.752 224.788 155.513C225.252 152.722 226.028 150.697 226.967 148.87C227.191 148.43 227.427 148.004 227.669 147.579C228.832 145.546 230.165 143.598 231.445 140.873C232.222 139.222 232.943 137.509 233.55 135.763C233.716 135.286 233.87 134.809 234.017 134.329C234.349 133.25 234.636 132.161 234.849 131.06C235.265 130.433 238.824 130.088 239.103 130.348C239.191 130.429 239.081 131.255 239.026 131.555C238.728 133.125 238.161 134.805 237.58 136.497C237.418 136.97 237.252 137.447 237.094 137.92C236.582 139.435 236.111 140.935 235.876 142.351C235.769 142.982 235.563 144.064 236.156 144.483L253.985 148.199L258.28 149.094L263.163 150.11C263.63 149.956 263.788 149.468 263.95 149.061C265.069 146.28 265.305 142.337 266.423 139.42C269.982 134.116 274.324 126.552 275.517 120.191C275.524 120.154 275.535 120.114 275.542 120.077C275.627 119.615 275.631 119.09 275.653 118.555C275.682 117.81 275.741 117.047 276.091 116.409C280.061 118.947 284.455 121.09 288.367 123.731C288.868 124.068 289.357 124.413 289.839 124.769C293.486 127.461 296.573 130.726 298.27 135.385L300.485 142.017L301.957 146.423L307.558 163.176L301.957 164.941L300.485 165.407L293.571 167.586C293.089 167.718 291.686 168.107 290.174 168.503C289.512 168.679 288.827 168.855 288.187 169.013C286.748 169.372 285.537 169.636 285.324 169.581C284.952 169.482 284.783 169.038 284.739 168.675L284.26 166.625L283.797 164.622L280.238 149.317C278.847 147.215 278.317 148.819 278.508 150.675C278.913 154.603 280.26 158.921 281.408 163.169C281.592 163.851 281.773 164.534 281.942 165.212C282.387 166.984 282.762 168.734 282.983 170.421C283.844 172.747 284.485 172.006 286.571 171.797C286.729 175.55 286.104 179.266 285.879 183C285.846 183.558 285.821 184.119 285.81 184.676C285.802 185.018 285.798 185.359 285.802 185.7C282.799 186.47 279.933 187.681 277.007 188.671C274.608 189.482 266.151 192.662 264.315 192.662C261.603 192.662 258.059 190.329 255.31 189.577C250.342 188.22 244.943 188.627 239.821 188.836C237.44 189.852 237.271 193.414 239.342 194.856C241.307 196.221 243.28 196.283 245.551 196.375C246.165 196.4 246.577 196.731 246.095 197.108C242.213 198.726 238.503 199.753 234.408 200.685C232.31 201.162 227.64 201.224 227.033 203.968C227.224 205.725 226.565 208.48 227.522 209.94C227.905 210.527 228.582 210.615 228.972 211.063C229.388 211.54 229.509 212.295 230.073 212.901C233.583 216.683 247.574 216.697 252.439 215.725C259.501 214.313 263.829 209.493 270.368 207.919C272.731 207.35 275.16 206.995 277.541 206.463C278.034 206.353 278.523 206.232 279.013 206.103C279.638 205.938 280.256 205.758 280.867 205.549C281.246 205.538 280.996 207.292 281.055 207.754C281.095 208.073 281.335 208.807 281.423 209.588C281.489 210.186 281.357 210.824 281.423 211.422C281.423 211.448 281.754 211.422 281.791 211.789C281.817 212.028 281.769 212.281 281.791 212.523C281.802 212.644 281.78 212.769 281.791 212.89C281.85 213.491 281.728 214.122 281.791 214.724C281.798 214.786 282.078 215.025 282.159 215.824C282.564 219.76 282.958 223.704 283.348 227.655C283.406 228.264 283.469 228.876 283.528 229.485C284.161 235.868 284.801 242.258 285.497 248.626C285.924 252.548 286.693 256.458 286.958 260.38C286.958 260.424 286.958 260.46 286.965 260.505H295.981C296.04 252.522 295.823 244.522 295.164 236.565C295.112 235.96 295.057 235.354 295.002 234.745C294.391 228.062 293.471 221.415 292.124 214.845C291.455 211.584 290.542 207.996 289.151 204.981C288.949 204.54 288.735 204.111 288.507 203.697C288.864 203.645 289.225 203.59 289.589 203.528C294.424 202.736 299.93 201.228 304.368 199.401C305.531 198.921 306.528 198.392 307.385 197.816C307.842 197.508 308.25 197.189 308.629 196.855C312.184 193.701 312.416 189.288 311.628 183.521L311.639 183.514ZM46.8721 134.244C47.0892 133.18 46.9162 132.036 47.3652 130.998C51.5935 132.172 58.9167 132.74 61.4926 128.393C61.9858 127.564 62.6408 124.534 62.788 124.384C63.0566 124.112 65.5075 124.094 65.8755 122.946C66.2582 121.754 63.4357 121.966 62.6997 121.794C60.7088 121.328 58.9314 119.421 58.3058 117.535C56.1199 110.932 62.9462 105.91 67.6566 111.354C68.1644 111.937 68.9446 113.614 69.0587 113.687C70.538 114.681 72.919 109.839 73.1839 108.632C73.666 106.449 73.0183 104.142 73.7801 101.959C76.6836 101.919 79.6349 102.121 82.4207 101.149C82.0895 102.704 82.7482 104.27 82.8255 105.657C83.1346 111.361 82.8181 119.501 80.7573 124.82C79.2191 128.789 76.7535 131.537 72.3486 132.146C70.8876 132.348 69.25 131.486 69.0292 133.356L69.3568 133.588C69.423 133.767 69.4046 133.954 69.423 134.142C69.4488 134.391 69.4267 134.67 69.423 134.927C69.4156 135.235 69.4672 135.546 69.3604 135.847L69.0292 136.104C68.9888 137.175 68.5104 143.58 68.1976 143.914C68.0614 144.061 64.9555 144.897 64.3961 145.033C59.1779 146.284 51.5751 146.43 47.3542 142.593C46.8095 142.098 45.4258 140.513 45.4074 139.853C45.3743 138.789 46.5924 135.635 46.8758 134.241L46.8721 134.244ZM107.135 244.015C107.584 245.794 109.494 252.291 108.633 253.542C108.412 253.861 105.715 255.64 105.148 255.959C102.443 257.471 99.2897 258.252 96.3972 259.32C95.8305 259.283 91.2968 251.829 90.6234 250.659C79.2633 230.905 74.851 214.493 71.4249 192.039C71.0312 189.46 71.0127 186.536 70.5123 183.913C70.0302 181.368 67.8627 181.371 67.8848 183.418C67.8995 184.992 68.4331 187.93 68.6649 189.68C69.8904 198.921 72.0247 209.955 74.3321 218.983C76.9449 229.206 81.6663 239.225 86.7557 248.421C85.1512 248.674 83.5136 248.975 81.9202 249.298C64.7273 252.801 48.0276 250.178 32.1154 242.999C30.2312 242.148 27.5853 240.919 25.9551 239.716C25.381 239.294 23.3717 237.519 23.1288 237.038C22.7424 236.275 22.8676 233.179 22.9154 232.108C23.8648 210.38 23.3791 188.264 22.9485 166.529C23.0295 165.143 21.8077 164.625 20.9393 165.737C20.2916 166.566 20.5271 170.722 20.5786 172.065C21.1601 187.505 21.3845 203.455 21.3809 218.777C21.3809 220.032 20.5713 221.796 20.965 223.293C15.699 220.109 9.33628 216.29 5.3987 211.521C-0.930865 203.858 3.98559 192.596 6.77501 184.207C10.6684 172.501 15.4046 159.508 22.9412 149.662C25.3663 146.493 28.7813 143.459 32.5165 141.926C33.8486 141.379 42.4782 138.94 43.0191 139.651C43.0743 139.725 43.0633 140.73 43.3982 141.434C46.7874 148.536 58.1954 149.02 64.7862 147.388C66.468 146.973 70.0928 145.26 71.4139 145.697C83.521 151.907 90.6123 157.674 93.7366 171.371C96.8168 184.889 96.8536 199.115 98.9732 212.831C99.0836 213.557 99.2014 214.28 99.3265 215.003C99.4921 215.967 99.6724 216.928 99.8638 217.889C100.265 219.889 100.747 221.881 101.281 223.873C102.109 226.965 103.051 230.05 103.996 233.131C105.111 236.767 106.226 240.395 107.139 244.019L107.135 244.015ZM217.399 231.958L169.077 202.541C160.333 197.901 151.328 196.756 142.073 200.707C128.928 207.882 115.938 215.351 102.988 222.871C102.322 220.193 101.678 217.229 101.104 214.008C113.384 207.185 125.351 199.753 137.661 193.004C146.007 188.425 152.27 185.282 161.934 189.119C181.132 199.669 199.613 211.51 218.514 222.592L218.904 223.693L217.402 231.954L217.399 231.958ZM240.17 79.1936C240.17 79.1936 240.192 79.1753 240.203 79.1679C243.674 76.424 244.104 75.1438 244.104 75.1438C244.104 75.1438 244.369 75.8958 244.616 76.2443C246.235 78.5516 248.031 80.5692 250.106 82.176C250.581 82.5465 251.07 82.8949 251.578 83.2214C253.672 84.5567 256.038 85.4958 258.769 85.9177C260.929 82.7959 264.845 79.6998 268.193 83.2031C271.38 86.5376 269.864 92.4326 266.331 94.9307C265.562 95.4737 263.306 96.1523 263.086 96.8309C262.802 97.7077 262.942 103.559 263.067 104.821C263.328 107.396 265.242 109.92 265.209 112.194C265.205 112.509 265.165 112.818 265.076 113.122C265.025 113.305 264.948 113.496 264.859 113.698C263.347 117.073 256.929 122.718 254.176 124.63C253.761 124.916 251.641 126.31 251.446 126.306C251.166 126.302 250.986 125.668 250.898 125.393C250.43 123.955 249.944 121.024 249.819 119.498C249.709 118.155 249.536 113.239 249.83 112.234C249.985 111.713 252.881 111.016 253.727 110.617C254.5 110.25 255.659 109.501 256.627 108.694C257.043 108.346 257.426 107.99 257.728 107.645C257.923 107.425 258.085 107.209 258.202 107.007C259.663 104.446 257.474 105.532 255.751 106.442C255.163 106.754 254.625 107.044 254.309 107.161C254.265 107.176 254.221 107.187 254.18 107.205C249.013 109.061 243.236 107.759 239.666 103.584C234.996 98.1222 235.64 90.3013 235.449 83.5773C235.434 83.0857 235.066 82.4988 235.132 82.1613C235.247 81.5633 236.586 81.9302 239.824 79.4761C239.942 79.3844 240.06 79.3 240.181 79.2046L240.17 79.1936ZM221.664 164.834C221.038 167.355 214.922 176.082 212.743 177.611C206.072 182.303 199.786 177.369 194.77 172.897C186.502 165.524 180.522 156.595 173.607 148.14C172.308 146.548 169.942 143.386 167.918 143.173C164.565 142.824 160.631 143.481 157.227 143.191C154.022 142.916 144.145 139.71 141.609 137.85C141.146 137.509 139.685 135.972 141.002 136.251C144.388 136.977 148.079 138.455 151.442 139.42C152.101 139.593 154.449 140.198 154.821 139.86C154.861 139.824 155.141 138.94 155.049 138.778C154.5 137.839 149.573 136.442 148.222 136.027C145.459 135.18 142.231 134.666 139.556 133.661C138.143 133.129 136.251 131.852 138.802 131.456L152.808 135.125C154.166 135.103 155.351 135.583 154.795 133.877C154.618 133.334 153.948 133.188 153.459 133.008C148.057 131.02 141.801 130.363 136.336 128.434C134.54 127.311 135.133 126.075 137.274 126.394C142.39 127.164 148.134 129.23 153.275 130.286C155.089 130.499 155.612 128.778 153.948 128.118L139.376 124.67C137.907 121.768 141.374 122.792 143.155 123.104C147.792 123.922 152.473 125.055 157.051 125.943C157.746 126.079 157.743 126.302 157.787 126.31C158.718 126.471 162.512 127.15 163.056 126.999C163.792 126.798 164.245 125.811 164.01 125.066C163.737 124.2 160.657 123.492 159.741 123.074C157.743 122.164 155.615 121.148 154.309 119.321C153.742 118.525 152.966 116.82 154.339 116.427C154.968 116.247 161.676 119.846 163.207 120.352C166.622 121.486 168.915 120.847 171.399 123.925C173.235 126.2 173.82 128.8 175.013 131.328C177.648 136.926 183.499 141.695 187.97 145.917C193.435 151.075 198.944 156.291 204.71 161.155C205.347 161.691 207.26 163.371 207.823 163.576C208.379 163.778 209.089 162.751 208.905 162.131C208.662 161.298 206.392 160.143 206.366 159.156C206.322 157.538 209.049 153.617 208.942 151.621C211.812 153.07 214.58 154.761 217.516 156.093C218.175 156.39 221.296 157.358 221.414 157.527C221.818 158.103 221.049 160.11 221.049 160.975C221.049 162.127 221.896 163.895 221.664 164.831V164.834ZM234.794 124.387C233.506 126.999 233.274 129.894 232.406 132.645C232.343 132.836 232.273 133.026 232.211 133.217C232.052 133.69 231.883 134.164 231.706 134.629C230.452 137.927 228.777 141.082 227.338 144.281C226.646 144.35 227.011 143.499 227.07 143.096C227.452 140.374 228.1 137.63 228.417 134.901C228.486 134.299 228.597 133.547 228.689 132.792C228.755 132.234 228.814 131.676 228.84 131.163C228.858 130.792 228.858 130.444 228.832 130.143C228.704 128.701 228.023 128.43 227.173 129.622C227.143 129.78 227.114 129.938 227.084 130.092C226.985 130.605 226.889 131.119 226.794 131.632C225.918 136.247 225.093 140.884 224.317 145.517C224.229 146.038 224.144 146.559 224.059 147.08C223.938 147.806 223.817 148.536 223.699 149.262C223.423 150.957 223.106 153.022 222.919 154.732C222.856 155.297 223.158 155.33 222.374 155.297C220.836 155.234 215.467 152.564 213.847 151.683C212.055 150.711 210.425 149.449 208.703 148.367C207.886 147.854 207.216 148.254 207.536 147.098C208.946 144.6 210.315 142.072 211.68 139.541C211.912 139.108 212.144 138.679 212.375 138.246C214.455 134.38 216.534 130.514 218.734 126.724C218.981 126.302 219.224 125.877 219.47 125.455C219.496 125.411 219.522 125.363 219.548 125.319C220.99 122.883 222.672 119.875 224.402 117.685C225.13 116.761 227.997 113.779 228.91 113.375C230.058 112.869 233.418 112.528 234.86 112.337C235.217 112.289 235.548 111.999 235.622 111.999H241.326L234.798 124.384L234.794 124.387ZM237.094 128.151C236.575 128.202 235.567 128.408 235.832 127.63L243.571 112.414C244.406 112.326 245.267 112.352 246.106 112.37C246.596 112.381 247.092 112.359 247.578 112.37C247.449 117.315 247.556 122.311 249.046 127.043C247.287 127.142 245.44 126.915 243.692 127.036C243.122 127.076 242.687 127.384 242.426 127.41C240.608 127.601 238.838 127.975 237.098 128.151H237.094ZM245.738 144.288L238.386 142.81L239.287 139.244L239.663 137.755L241.712 129.633C244.413 129.578 247.052 129.017 249.786 129.248L246.393 141.852L245.996 143.331L245.738 144.292V144.288ZM261.912 147.568L252.984 145.862L248.866 145.073L248.513 145.007L247.589 144.45C247.6 144.406 247.615 144.361 247.626 144.317C247.758 143.833 247.902 143.345 248.053 142.857C249.194 139.123 250.728 135.242 251.553 131.548C251.652 131.104 251.582 130.04 251.634 129.982C251.759 129.839 253.705 129.982 254.198 130.176C255.295 130.605 259.803 134.145 261.014 135.121C261.661 135.646 263.689 137.153 263.961 137.685C264.812 139.365 262.096 145.425 261.919 147.575L261.912 147.568ZM273.574 119.002C273.169 121.115 272.197 123.595 271.678 124.839C270.063 128.698 267.575 132.197 266.342 136.214C265.768 136.368 265.735 136.056 265.43 135.844C264.469 135.169 263.601 134.347 262.666 133.646C259.803 131.5 256.922 129.424 253.838 127.594C255.067 126.61 256.476 125.836 257.694 124.839C260.09 122.876 265.124 118.159 266.666 114.798C266.854 114.391 266.994 113.999 267.067 113.639C267.082 113.559 267.093 113.456 267.093 113.338C267.104 112.825 267.012 112.073 267.082 112.003C267.498 111.574 270.232 113.845 270.762 114.204C271.472 114.688 273.029 115.041 273.522 116.038C273.695 116.39 273.765 116.856 273.758 117.396C273.75 117.883 273.684 118.43 273.574 119.002ZM307.878 193.576C307.503 194.207 306.866 194.772 306.071 195.285C305.622 195.575 305.122 195.847 304.588 196.103C302.053 197.318 298.8 198.158 296.894 198.767C293.637 199.808 290.2 200.854 286.796 201.815C286.148 201.998 285.504 202.178 284.86 202.354C283.734 202.662 282.615 202.963 281.515 203.246C280.724 203.451 279.885 203.634 279.02 203.814C278.538 203.913 278.045 204.012 277.548 204.108C273.735 204.838 269.596 205.48 266.512 206.635C263.428 207.791 259.976 210.806 256.66 212.222C251.784 214.306 245.481 214.746 239.806 213.942C239.35 213.876 242.364 213.572 243.766 213.436C244.123 213.403 244.358 213.051 244.255 212.71C244.178 212.453 243.935 212.284 243.67 212.306C241.834 212.446 235.04 212.941 234.327 212.71C233.535 212.457 232.696 212.273 232.122 211.606L247.026 209.724C247.552 209.658 247.873 209.108 247.663 208.62C247.516 208.278 247.159 208.08 246.791 208.146C245.124 208.433 240.557 209.188 238.581 209.243C236.244 209.313 232.38 209.816 230.095 209.232C228.851 208.913 228.932 207.783 229.844 207.497C231.427 207.002 235.835 207.24 238.202 207.031C238.927 206.969 242.699 206.096 244.52 205.67C245.039 205.549 245.319 204.992 245.113 204.504C244.951 204.13 244.55 203.921 244.148 204.001C242.629 204.32 239.052 205.058 238.235 205.116C236.2 205.263 232.177 205.678 230.124 205.788C229.642 205.813 228.762 205.714 228.814 204.639C228.884 203.209 236.538 202.427 238.018 202.079C240.601 201.474 249.591 198.587 250.714 196.393C251.059 195.718 250.978 195.293 250.29 194.966L243 194.163C241.02 194.354 238.231 191.331 240.833 190.579C241.896 190.271 246.379 190.428 247.77 190.509C253.753 190.858 256.594 192.93 261.842 194.456C264.149 195.128 264.782 194.882 266.997 194.284C274.405 192.285 281.795 189.178 289.177 186.731C289.791 186.525 290.406 186.327 291.02 186.133C291.631 185.942 292.238 185.751 292.849 185.572C294.012 184.757 292.091 179.618 291.65 178.312C291.337 177.384 288.757 171.386 289.158 171.074L290.796 170.605L292.713 170.051L300.493 167.809L301.965 167.384L305.718 166.302C306.189 171.621 307.897 177.024 308.633 182.288C309.082 185.516 309.586 190.696 307.878 193.579V193.576Z" fill="black"/>
<path d="M119.736 83.0086L120.038 82.341C119.261 81.9925 118.488 81.611 117.741 81.2075L117.388 81.8531C118.153 82.2676 118.941 82.6564 119.736 83.0123V83.0086Z" fill="black"/>
<path d="M167.484 57.0992L166.755 56.9892C166.626 57.8292 166.464 58.6729 166.269 59.4946L166.987 59.6597C167.182 58.8196 167.351 57.9576 167.484 57.0992Z" fill="black"/>
<path d="M112.994 79.0138C113.685 79.5384 114.407 80.0446 115.135 80.5141L115.536 79.8979C114.822 79.4356 114.12 78.9441 113.439 78.4268L112.994 79.0101V79.0138Z" fill="black"/>
<path d="M164.731 64.3626L165.412 64.6377C165.739 63.8307 166.037 63.0053 166.299 62.1799L165.596 61.9598C165.338 62.7668 165.048 63.5775 164.731 64.3662V64.3626Z" fill="black"/>
<path d="M122.341 20.5297L122.091 19.84C121.274 20.1335 120.457 20.4636 119.666 20.8195L119.967 21.4871C120.74 21.1386 121.539 20.8158 122.337 20.5297H122.341Z" fill="black"/>
<path d="M117.679 22.6279L117.325 21.9823C116.564 22.3968 115.809 22.848 115.081 23.3213L115.482 23.9375C116.196 23.4753 116.935 23.0351 117.679 22.6279Z" fill="black"/>
<path d="M113.392 25.4085L112.943 24.8253C112.255 25.3498 111.574 25.9111 110.926 26.4907L111.416 27.0373C112.049 26.4724 112.715 25.9258 113.388 25.4085H113.392Z" fill="black"/>
<path d="M124.663 84.7695L124.858 84.0615C124.041 83.8377 123.22 83.5809 122.415 83.2948L122.168 83.9844C122.989 84.2779 123.831 84.542 124.663 84.7695Z" fill="black"/>
<path d="M129.385 85.6976C129.76 98.3717 140.175 108.533 152.981 108.533C166.023 108.533 176.595 97.9939 176.595 84.9933C176.595 71.9928 166.023 61.4536 152.981 61.4536C139.954 61.4536 129.388 71.9707 129.37 84.953C128.693 84.8649 128.016 84.7622 127.353 84.6375L127.214 85.3565C127.928 85.4922 128.656 85.6023 129.385 85.694V85.6976ZM143.63 77.3632H149.378L150.122 78.9112L150.64 79.9897L151.454 81.6771L152.484 83.8158L152.981 84.8466L153.478 83.8158L154.508 81.6771L155.321 79.9897L155.84 78.9112L156.584 77.3632H164.146L163.403 78.9112L161.044 83.8121H163.656L162.913 85.3602H160.3L159.807 86.3873H162.42L161.677 87.9353H159.064L157.905 90.3454L157.091 92.0328L156.771 92.7005L155.917 94.4723L155.605 95.1216H153.79L153.765 95.1729L153.739 95.1216H152.234L152.208 95.1729L152.182 95.1216H150.368L150.055 94.4723L149.202 92.7005L148.881 92.0328L148.068 90.3454L146.909 87.9353H144.296L143.553 86.3873H146.166L145.672 85.3602H143.06L142.316 83.8121H144.929L144.723 83.3829L142.57 78.9076L141.827 77.3595H143.641L143.63 77.3632Z" fill="black"/>
<path d="M132.362 18.5854L132.332 17.8518C131.464 17.8848 130.584 17.9545 129.723 18.0535L129.808 18.7835C130.65 18.6845 131.511 18.6184 132.362 18.5854Z" fill="black"/>
<path d="M127.276 19.1724L127.136 18.4534C126.283 18.6185 125.425 18.8203 124.586 19.0514L124.781 19.7594C125.598 19.5356 126.437 19.3375 127.276 19.1761V19.1724Z" fill="black"/>
<path d="M167.881 51.8976V51.8205H167.145V51.8976C167.145 52.7486 167.112 53.607 167.05 54.4507L167.782 54.5057C167.848 53.6437 167.881 52.767 167.881 51.8976Z" fill="black"/>
<path d="M167.778 49.2123C167.712 48.3466 167.609 47.4736 167.476 46.6225L166.748 46.7362C166.876 47.5726 166.98 48.4236 167.046 49.271L167.778 49.2123Z" fill="black"/>
<path d="M110.974 77.3521L111.463 76.8056C110.826 76.2406 110.205 75.6464 109.616 75.0338L109.086 75.5437C109.689 76.1673 110.322 76.7762 110.974 77.3521Z" fill="black"/>
<path d="M171.675 133.191C170.35 132.612 168.326 132.505 166.902 132.645C164.701 132.861 159.542 134.303 158.132 136.005C157.43 136.852 157.683 138.294 158.913 137.891C160.285 137.439 161.871 136.159 163.306 135.664C164.642 135.205 167.627 134.637 168.977 134.773C170.022 134.879 171.001 135.657 172.024 135.209C173.445 134.585 172.782 133.676 171.675 133.191Z" fill="black"/>
<path d="M252.811 138.701C254.431 140.312 257.073 137.652 255.869 135.833C254.478 133.734 250.824 136.724 252.811 138.701Z" fill="black"/>
<path d="M94.5755 42.5763C95.1643 42.6497 95.7641 42.5727 96.3492 42.5947L94.6712 40.0929C93.972 39.1501 92.419 38.0203 91.683 39.4949C90.855 41.1567 93.1734 42.4076 94.5718 42.5763H94.5755Z" fill="black"/>
<path d="M100.803 42.635C101.034 42.6497 101.292 42.657 101.568 42.646C103.279 42.5873 105.59 41.993 105.447 40.346C105.428 40.1515 105.285 39.6746 105.16 39.5463C104.692 39.0804 103.364 39.3372 102.827 39.6233C102.551 39.7664 101.642 40.7421 101.384 41.0466C101.215 41.2447 100.262 42.4516 100.427 42.5946C100.541 42.613 100.67 42.624 100.806 42.635H100.803Z" fill="black"/>
<path d="M106.565 72.6236C106.819 72.9538 107.08 73.2802 107.342 73.5994L107.908 73.1335C107.695 72.8767 107.489 72.6163 107.287 72.3522C110.698 70.9839 113.863 68.6948 116.457 65.3823C126.202 52.9357 120.958 35.9917 108.619 29.8545C108.931 29.5024 109.248 29.1539 109.575 28.8164L109.046 28.3102C108.663 28.7064 108.295 29.1172 107.931 29.5317C104.449 27.947 100.438 27.206 96.0589 27.6389C81.707 29.0548 72.6174 43.8162 76.8457 57.4C80.9415 70.562 95.0027 76.7908 106.569 72.6346L106.565 72.6236ZM95.1573 63.5885H87.617C87.3521 63.5885 87.2674 63.0089 87.2453 62.7631C86.9436 59.1498 87.6538 55.4998 87.4956 51.8975H95.1536V63.5885H95.1573ZM100.659 63.5885H96.3496V51.8975H100.659V63.5885ZM100.659 50.4669H96.5888V45.456H100.659V50.4669ZM109.634 63.5885H102.094V51.8975H109.395C109.517 51.8975 109.778 52.2937 109.759 52.4881L109.977 63.0016C110.039 63.2033 109.741 63.5885 109.634 63.5885ZM111.669 45.456C111.982 47.1104 111.916 48.7831 111.909 50.4669L102.094 50.7053V45.456H111.669ZM92.2096 36.9161C95.2493 36.2668 97.0598 40.5514 98.3846 42.591C99.4003 41.1603 100.843 38.6512 102.664 37.6131C102.988 37.4296 103.319 37.2902 103.665 37.2132C104.195 37.0958 104.755 37.1178 105.336 37.3343C108.917 38.6659 107.761 43.5814 104.074 44.2124C102.602 44.4655 94.5354 44.5059 93.1664 44.2197C92.1802 44.0143 90.8407 43.1816 90.2592 42.3452C88.8756 40.3533 89.8213 37.4296 92.2096 36.9197V36.9161ZM85.8212 45.456H95.1573V50.3458C95.1573 51.1309 91.492 50.4816 90.745 50.4596C89.0301 50.4082 87.3005 50.5109 85.5857 50.4669C85.501 48.7758 85.9978 47.1617 85.8249 45.456H85.8212Z" fill="black"/>
<path d="M147.479 85.3564L147.976 86.3836L148.686 87.8582L148.719 87.9316L149.496 89.5457L149.897 87.9316L150.025 87.4144L150.276 87.9316L150.883 89.1972L151.737 90.9653L152.337 92.2162L152.981 93.5478L153.621 92.2162L154.224 90.9653L155.078 89.1972L155.685 87.9316L155.932 87.4144L156.061 87.9316L156.465 89.5457L157.242 87.9316L157.275 87.8582L157.985 86.3836L158.478 85.3564L159.225 83.8121L161.584 78.9075H160.028H158.743L156.384 83.8121L156.307 83.9698L156.27 83.8121L155.899 82.319L155.181 83.8121L155.085 84.0065L154.434 85.3564L153.941 86.3836L153.831 86.611L153.198 87.9316L152.981 88.3828L152.763 87.9316L152.127 86.611L152.016 86.3836L151.523 85.3564L150.876 84.0065L150.78 83.8121L150.062 82.319L149.691 83.8121L149.65 83.9698L149.577 83.8121L148.907 82.4218L148.59 81.7615L147.214 78.9075H145.93H144.377L146.736 83.8121L147.479 85.3564Z" fill="black"/>
<path d="M145.525 43.3834C152.639 47.3562 160.124 47.1434 166.262 44.2271L166.972 44.0583C166.961 44.0033 166.943 43.9483 166.932 43.8969C175.992 39.2271 181.865 28.5926 178.722 17.0007C175.881 6.52397 165.618 -0.981436 154.626 0.10439C132.086 2.33474 125.782 32.349 145.529 43.3797L145.525 43.3834ZM165.401 33.5009C164.621 33.9961 163.767 34.2199 162.92 34.2199C162.608 34.2199 162.299 34.1869 161.993 34.1282C160.716 33.8714 159.539 33.0974 158.792 31.9272C158.24 31.0688 158.026 30.071 158.089 29.0952C158.107 28.8274 158.151 28.5596 158.21 28.2992C158.611 26.52 159.929 24.9573 161.846 24.6272C167.307 23.6918 169.548 30.867 165.401 33.5009ZM161.272 12.6061H165.559C162.276 17.9765 152.19 33.9301 152.19 33.9301H147.814L161.272 12.6061ZM149.282 12.2025C154.744 11.2671 156.985 18.4424 152.837 21.0762C151.141 22.1511 149.091 21.9713 147.571 20.9002C147.424 20.7974 147.284 20.6874 147.148 20.5663C146.798 20.2619 146.489 19.9024 146.228 19.4989C144.498 16.799 146.055 12.7528 149.282 12.1989V12.2025Z" fill="black"/>
<path d="M150.674 18.9302C153.268 18.5928 152.396 14.4952 150.019 14.8584C147.487 15.2436 147.825 19.3044 150.674 18.9302Z" fill="black"/>
<path d="M162.581 27.2831C160.05 27.6682 160.388 31.7291 163.237 31.3549C165.831 31.0174 164.959 26.9199 162.581 27.2831Z" fill="black"/>
<path d="M192.702 108.918C193.162 109.123 193.656 109.322 194.174 109.512C196.427 110.33 199.227 110.943 202.579 110.943C204.291 110.943 206.153 110.774 208.155 110.4C208.637 110.308 209.126 110.206 209.627 110.092C210.804 109.82 212.022 109.483 213.292 109.05C213.483 108.984 213.586 108.775 213.52 108.584C213.454 108.393 213.248 108.287 213.053 108.353C211.868 108.753 210.727 109.079 209.627 109.34C209.126 109.457 208.637 109.564 208.155 109.655C202.175 110.8 197.512 109.989 194.178 108.731C193.656 108.533 193.162 108.327 192.706 108.111C189.538 106.636 187.929 104.912 187.893 104.872C187.756 104.721 187.525 104.71 187.374 104.846C187.223 104.982 187.212 105.213 187.348 105.363C187.388 105.407 189.181 107.337 192.71 108.914L192.702 108.918Z" fill="black"/>
</svg>
